<svg width="245" height="195" viewBox="0 0 245 195" fill="none" xmlns="http://www.w3.org/2000/svg">
<path fill-rule="evenodd" clip-rule="evenodd" d="M217.922 39.8837C227.807 45.7363 232.274 57.6895 228.649 68.5906C228.027 70.4618 227.199 72.2081 226.199 73.8123C228.45 76.1598 230.19 79.1087 231.138 82.5665C235.245 97.5472 230.725 113.356 220.248 124.085C222.802 129.209 223.437 135.309 221.469 141.228C218.77 149.347 211.954 154.803 204.194 156.269C191.812 186.019 158.521 201.27 127.83 191.065C107.772 184.396 93.3344 168.352 87.9438 149.315L86.3045 153.05C86.2863 153.092 86.268 153.133 86.2495 153.175L86.2203 153.242L86.1889 153.314L80.5818 166.089C74.1448 180.755 57.0375 187.425 42.372 180.987L27.9378 174.65C27.6942 174.543 27.4524 174.433 27.2125 174.32C26.9952 174.232 26.779 174.141 26.564 174.047L14.3722 168.695C2.91399 163.664 -2.2976 150.298 2.73168 138.839C3.66007 136.724 4.87818 134.815 6.32011 133.143C6.57476 130.949 7.15542 128.76 8.08383 126.645C9.01223 124.53 10.2303 122.621 11.6723 120.948C11.9269 118.755 12.5076 116.566 13.436 114.451C18.4655 102.992 31.832 97.7801 43.2906 102.811L55.3254 108.094C60.401 98.8441 71.069 94.2424 81.166 96.6919C80.3745 91.892 80.7046 86.8335 82.3475 81.8926C86.3848 69.7506 97.1962 61.7842 109.176 60.7741C111.84 57.6611 114.786 54.8328 117.96 52.3168C111.309 44.1678 108.844 32.8982 112.41 22.1742C118.803 2.94487 141.319 -5.46899 158.757 4.85487L217.922 39.8837Z" fill="#F5EDD8"/>
<path fill-rule="evenodd" clip-rule="evenodd" d="M20.7614 117.678C19.7978 119.874 19.4153 122.177 19.5468 124.417C17.8093 125.836 16.3728 127.677 15.4092 129.873C14.4457 132.068 14.0632 134.372 14.1946 136.611C12.4572 138.031 11.0206 139.872 10.0571 142.067C6.80349 149.48 10.175 158.127 17.5876 161.381L29.7794 166.733C29.9883 166.825 30.1987 166.912 30.4104 166.993C30.6551 167.112 30.9027 167.226 31.1532 167.336L45.5873 173.673C56.2073 178.335 68.5954 173.505 73.2568 162.885L78.8638 150.11L78.9073 150.01L78.9258 149.967C78.9439 149.927 78.9617 149.887 78.9794 149.846L89.6842 125.457C93.072 117.738 89.5614 108.734 81.843 105.346C74.1242 101.957 65.12 105.468 61.732 113.187L59.3518 118.61L53.6412 116.103C53.3907 115.993 53.1389 115.888 52.8858 115.789C52.6825 115.688 52.4763 115.592 52.2674 115.5L40.0756 110.148C32.6625 106.894 24.0151 110.265 20.7614 117.678ZM27.9896 121.127C27.676 121.921 27.5257 122.741 27.5237 123.55L32.0064 125.518C34.0292 126.406 34.9493 128.766 34.0614 130.789C33.1735 132.812 30.814 133.732 28.7912 132.844L24.3083 130.876C23.7143 131.425 23.2121 132.091 22.8402 132.859C22.8038 132.934 22.7686 133.011 22.7347 133.088C22.7007 133.165 22.6683 133.243 22.6375 133.321C22.3238 134.115 22.1735 134.936 22.1716 135.745L26.6541 137.712C28.6769 138.6 29.597 140.96 28.7091 142.983C27.8213 145.006 25.4617 145.926 23.4389 145.038L18.9561 143.07C18.3621 143.619 17.8599 144.285 17.4881 145.053C17.4516 145.129 17.4164 145.205 17.3825 145.282C15.9046 148.65 17.4361 152.578 20.8034 154.056L32.9952 159.408C33.1883 159.493 33.3832 159.568 33.5794 159.633C33.8365 159.767 34.0997 159.893 34.369 160.011L48.8031 166.348C55.3772 169.234 63.0458 166.244 65.9313 159.67L71.5383 146.895C71.5604 146.844 71.5822 146.794 71.6036 146.744C71.6206 146.706 71.6374 146.669 71.6539 146.631L82.3587 122.242C83.9709 118.568 82.3003 114.284 78.6272 112.671C74.9542 111.059 70.6697 112.729 69.0575 116.402L66.6765 121.827L68.6647 122.7C70.6875 123.588 71.6076 125.948 70.7197 127.971C69.8319 129.994 67.4723 130.914 65.4495 130.026L57.1362 126.376L57.1368 126.375L50.4254 123.428C50.1562 123.31 49.8851 123.202 49.6126 123.103C49.4318 123.003 49.2447 122.91 49.0516 122.825L36.8598 117.473C33.4926 115.995 29.5648 117.526 28.0868 120.894C28.0528 120.971 28.0205 121.049 27.9896 121.127Z" fill="#E90303"/>
<path d="M99.3567 119.587L107.754 88.5737C115.482 60.0302 145.616 43.8529 173.676 53.1832C201.737 62.5135 216.184 93.5141 205.282 121.002L193.436 150.869C183.728 175.344 156.602 187.986 131.616 179.678C106.631 171.37 92.4753 145.002 99.3567 119.587Z" fill="#F5EDD8" stroke="#E90303" stroke-width="8"/>
<mask id="mask0_458_17301" style="mask-type:alpha" maskUnits="userSpaceOnUse" x="89" y="109" width="105" height="84">
<g clip-path="url(#clip0_458_17301)">
<g clip-path="url(#clip1_458_17301)">
<path d="M108.035 113.402C108.829 113.695 109.709 113.288 110.001 112.495C110.294 111.701 109.887 110.821 109.093 110.529C108.3 110.236 107.42 110.643 107.127 111.436C106.835 112.23 107.242 113.11 108.035 113.402Z" fill="#E90303"/>
<path d="M110.63 119.02C111.423 119.312 112.303 118.905 112.596 118.112C112.888 117.318 112.481 116.438 111.688 116.146C110.894 115.854 110.014 116.26 109.722 117.054C109.43 117.847 109.836 118.727 110.63 119.02Z" fill="#E90303"/>
</g>
<g clip-path="url(#clip2_458_17301)">
<path d="M116.247 116.425C117.04 116.718 117.92 116.311 118.213 115.517C118.505 114.724 118.098 113.844 117.305 113.551C116.511 113.259 115.631 113.666 115.339 114.459C115.046 115.253 115.453 116.133 116.247 116.425Z" fill="#E90303"/>
<path d="M118.841 122.043C119.634 122.335 120.515 121.928 120.807 121.135C121.099 120.341 120.692 119.461 119.899 119.169C119.105 118.877 118.225 119.283 117.933 120.077C117.641 120.87 118.047 121.75 118.841 122.043Z" fill="#E90303"/>
</g>
<g clip-path="url(#clip3_458_17301)">
<path d="M124.458 119.448C125.251 119.741 126.132 119.334 126.424 118.54C126.716 117.747 126.309 116.867 125.516 116.574C124.722 116.282 123.842 116.689 123.55 117.482C123.258 118.276 123.664 119.156 124.458 119.448Z" fill="#E90303"/>
<path d="M127.052 125.066C127.846 125.358 128.726 124.951 129.018 124.158C129.31 123.364 128.904 122.484 128.11 122.192C127.316 121.899 126.436 122.306 126.144 123.1C125.852 123.893 126.258 124.773 127.052 125.066Z" fill="#E90303"/>
</g>
<g clip-path="url(#clip4_458_17301)">
<path d="M132.669 122.472C133.463 122.764 134.343 122.357 134.635 121.564C134.927 120.77 134.521 119.89 133.727 119.598C132.933 119.306 132.053 119.712 131.761 120.506C131.469 121.299 131.875 122.18 132.669 122.472Z" fill="#E90303"/>
<path d="M135.263 128.089C136.057 128.381 136.937 127.975 137.229 127.181C137.521 126.387 137.115 125.507 136.321 125.215C135.528 124.923 134.647 125.329 134.355 126.123C134.063 126.917 134.47 127.797 135.263 128.089Z" fill="#E90303"/>
</g>
<g clip-path="url(#clip5_458_17301)">
<path d="M140.88 125.495C141.674 125.787 142.554 125.38 142.846 124.587C143.138 123.793 142.732 122.913 141.938 122.621C141.145 122.329 140.264 122.735 139.972 123.529C139.68 124.322 140.087 125.203 140.88 125.495Z" fill="#E90303"/>
<path d="M143.474 131.112C144.268 131.404 145.148 130.998 145.44 130.204C145.733 129.41 145.326 128.53 144.532 128.238C143.739 127.946 142.859 128.352 142.566 129.146C142.274 129.94 142.681 130.82 143.474 131.112Z" fill="#E90303"/>
</g>
<g clip-path="url(#clip6_458_17301)">
<path d="M149.091 128.518C149.885 128.81 150.765 128.403 151.057 127.61C151.349 126.816 150.943 125.936 150.149 125.644C149.356 125.352 148.476 125.758 148.183 126.552C147.891 127.345 148.298 128.226 149.091 128.518Z" fill="#E90303"/>
<path d="M151.686 134.135C152.479 134.427 153.359 134.021 153.652 133.227C153.944 132.433 153.537 131.553 152.744 131.261C151.95 130.969 151.07 131.375 150.778 132.169C150.485 132.963 150.892 133.843 151.686 134.135Z" fill="#E90303"/>
</g>
<g clip-path="url(#clip7_458_17301)">
<path d="M157.303 131.541C158.096 131.833 158.977 131.426 159.269 130.633C159.561 129.839 159.154 128.959 158.361 128.667C157.567 128.375 156.687 128.781 156.395 129.575C156.103 130.368 156.509 131.248 157.303 131.541Z" fill="#E90303"/>
<path d="M159.897 137.158C160.69 137.45 161.571 137.044 161.863 136.25C162.155 135.456 161.748 134.576 160.955 134.284C160.161 133.992 159.281 134.398 158.989 135.192C158.697 135.985 159.103 136.866 159.897 137.158Z" fill="#E90303"/>
</g>
<g clip-path="url(#clip8_458_17301)">
<path d="M165.514 134.564C166.307 134.856 167.187 134.449 167.48 133.656C167.772 132.862 167.365 131.982 166.572 131.69C165.778 131.397 164.898 131.804 164.606 132.598C164.314 133.391 164.72 134.271 165.514 134.564Z" fill="#E90303"/>
<path d="M168.108 140.181C168.902 140.473 169.782 140.066 170.074 139.273C170.366 138.479 169.96 137.599 169.166 137.307C168.372 137.015 167.492 137.421 167.2 138.215C166.908 139.008 167.314 139.889 168.108 140.181Z" fill="#E90303"/>
</g>
<g clip-path="url(#clip9_458_17301)">
<path d="M173.725 137.587C174.519 137.879 175.399 137.472 175.691 136.679C175.983 135.885 175.577 135.005 174.783 134.713C173.99 134.42 173.109 134.827 172.817 135.621C172.525 136.414 172.931 137.294 173.725 137.587Z" fill="#E90303"/>
<path d="M176.319 143.204C177.113 143.496 177.993 143.089 178.285 142.296C178.577 141.502 178.171 140.622 177.377 140.33C176.584 140.038 175.703 140.444 175.411 141.238C175.119 142.031 175.525 142.912 176.319 143.204Z" fill="#E90303"/>
</g>
<g clip-path="url(#clip10_458_17301)">
<path d="M181.936 140.609C182.73 140.902 183.61 140.495 183.902 139.702C184.194 138.908 183.788 138.028 182.994 137.736C182.2 137.443 181.32 137.85 181.028 138.644C180.736 139.437 181.142 140.317 181.936 140.609Z" fill="#E90303"/>
<path d="M184.53 146.227C185.324 146.519 186.204 146.112 186.496 145.319C186.788 144.525 186.382 143.645 185.588 143.353C184.795 143.061 183.915 143.467 183.622 144.261C183.33 145.054 183.737 145.935 184.53 146.227Z" fill="#E90303"/>
</g>
<g clip-path="url(#clip11_458_17301)">
<path d="M190.147 143.633C190.941 143.925 191.821 143.519 192.113 142.725C192.405 141.931 191.999 141.051 191.205 140.759C190.412 140.467 189.531 140.873 189.239 141.667C188.947 142.461 189.354 143.341 190.147 143.633Z" fill="#E90303"/>
<path d="M192.741 149.25C193.535 149.542 194.415 149.136 194.707 148.342C195 147.549 194.593 146.668 193.8 146.376C193.006 146.084 192.126 146.491 191.834 147.284C191.541 148.078 191.948 148.958 192.741 149.25Z" fill="#E90303"/>
</g>
<g clip-path="url(#clip12_458_17301)">
<path d="M105.012 121.614C105.806 121.906 106.686 121.5 106.978 120.706C107.271 119.912 106.864 119.032 106.071 118.74C105.277 118.448 104.397 118.854 104.105 119.648C103.812 120.442 104.219 121.322 105.012 121.614Z" fill="#E90303"/>
<path d="M107.606 127.231C108.4 127.523 109.28 127.117 109.572 126.323C109.865 125.53 109.458 124.649 108.664 124.357C107.871 124.065 106.991 124.471 106.699 125.265C106.406 126.059 106.813 126.939 107.606 127.231Z" fill="#E90303"/>
</g>
<g clip-path="url(#clip13_458_17301)">
<path d="M113.224 124.637C114.017 124.929 114.897 124.523 115.19 123.729C115.482 122.935 115.075 122.055 114.282 121.763C113.488 121.471 112.608 121.877 112.316 122.671C112.024 123.464 112.43 124.345 113.224 124.637Z" fill="#E90303"/>
<path d="M115.818 130.254C116.611 130.546 117.492 130.14 117.784 129.346C118.076 128.552 117.67 127.672 116.876 127.38C116.082 127.088 115.202 127.494 114.91 128.288C114.618 129.082 115.024 129.962 115.818 130.254Z" fill="#E90303"/>
</g>
<g clip-path="url(#clip14_458_17301)">
<path d="M121.435 127.66C122.228 127.952 123.109 127.545 123.401 126.752C123.693 125.958 123.286 125.078 122.493 124.786C121.699 124.494 120.819 124.9 120.527 125.694C120.235 126.487 120.641 127.368 121.435 127.66Z" fill="#E90303"/>
<path d="M124.029 133.277C124.822 133.569 125.703 133.163 125.995 132.369C126.287 131.575 125.88 130.695 125.087 130.403C124.293 130.111 123.413 130.517 123.121 131.311C122.829 132.105 123.235 132.985 124.029 133.277Z" fill="#E90303"/>
</g>
<g clip-path="url(#clip15_458_17301)">
<path d="M129.646 130.683C130.44 130.975 131.32 130.568 131.612 129.775C131.904 128.981 131.498 128.101 130.704 127.809C129.91 127.517 129.03 127.923 128.738 128.717C128.446 129.51 128.852 130.391 129.646 130.683Z" fill="#E90303"/>
<path d="M132.24 136.3C133.034 136.592 133.914 136.186 134.206 135.392C134.498 134.598 134.092 133.718 133.298 133.426C132.505 133.134 131.624 133.54 131.332 134.334C131.04 135.128 131.447 136.008 132.24 136.3Z" fill="#E90303"/>
</g>
<g clip-path="url(#clip16_458_17301)">
<path d="M137.857 133.706C138.651 133.998 139.531 133.591 139.823 132.798C140.115 132.004 139.709 131.124 138.915 130.832C138.122 130.54 137.241 130.946 136.949 131.74C136.657 132.533 137.064 133.414 137.857 133.706Z" fill="#E90303"/>
<path d="M140.451 139.323C141.245 139.615 142.125 139.209 142.417 138.415C142.71 137.621 142.303 136.741 141.509 136.449C140.716 136.157 139.836 136.563 139.543 137.357C139.251 138.15 139.658 139.031 140.451 139.323Z" fill="#E90303"/>
</g>
<g clip-path="url(#clip17_458_17301)">
<path d="M146.068 136.729C146.862 137.021 147.742 136.614 148.034 135.821C148.327 135.027 147.92 134.147 147.126 133.855C146.333 133.563 145.453 133.969 145.16 134.763C144.868 135.556 145.275 136.436 146.068 136.729Z" fill="#E90303"/>
<path d="M148.663 142.346C149.456 142.638 150.336 142.232 150.629 141.438C150.921 140.644 150.514 139.764 149.721 139.472C148.927 139.18 148.047 139.586 147.755 140.38C147.462 141.173 147.869 142.054 148.663 142.346Z" fill="#E90303"/>
</g>
<g clip-path="url(#clip18_458_17301)">
<path d="M154.28 139.752C155.073 140.044 155.953 139.638 156.246 138.844C156.538 138.051 156.131 137.17 155.338 136.878C154.544 136.586 153.664 136.992 153.372 137.786C153.079 138.58 153.486 139.46 154.28 139.752Z" fill="#E90303"/>
<path d="M156.874 145.369C157.667 145.661 158.548 145.255 158.84 144.461C159.132 143.668 158.725 142.788 157.932 142.495C157.138 142.203 156.258 142.61 155.966 143.403C155.674 144.197 156.08 145.077 156.874 145.369Z" fill="#E90303"/>
</g>
<g clip-path="url(#clip19_458_17301)">
<path d="M162.491 142.775C163.284 143.067 164.165 142.661 164.457 141.867C164.749 141.073 164.342 140.193 163.549 139.901C162.755 139.609 161.875 140.015 161.583 140.809C161.291 141.603 161.697 142.483 162.491 142.775Z" fill="#E90303"/>
<path d="M165.085 148.392C165.879 148.684 166.759 148.278 167.051 147.484C167.343 146.691 166.937 145.81 166.143 145.518C165.349 145.226 164.469 145.633 164.177 146.426C163.885 147.22 164.291 148.1 165.085 148.392Z" fill="#E90303"/>
</g>
<g clip-path="url(#clip20_458_17301)">
<path d="M170.702 145.798C171.496 146.09 172.376 145.684 172.668 144.89C172.96 144.096 172.554 143.216 171.76 142.924C170.967 142.632 170.086 143.038 169.794 143.832C169.502 144.626 169.909 145.506 170.702 145.798Z" fill="#E90303"/>
<path d="M173.296 151.415C174.09 151.707 174.97 151.301 175.262 150.507C175.554 149.714 175.148 148.833 174.354 148.541C173.561 148.249 172.68 148.656 172.388 149.449C172.096 150.243 172.503 151.123 173.296 151.415Z" fill="#E90303"/>
</g>
<g clip-path="url(#clip21_458_17301)">
<path d="M178.913 148.821C179.707 149.113 180.587 148.707 180.879 147.913C181.171 147.119 180.765 146.239 179.971 145.947C179.178 145.655 178.297 146.061 178.005 146.855C177.713 147.649 178.119 148.529 178.913 148.821Z" fill="#E90303"/>
<path d="M181.507 154.438C182.301 154.73 183.181 154.324 183.473 153.53C183.765 152.737 183.359 151.856 182.565 151.564C181.772 151.272 180.892 151.679 180.599 152.472C180.307 153.266 180.714 154.146 181.507 154.438Z" fill="#E90303"/>
</g>
<g clip-path="url(#clip22_458_17301)">
<path d="M187.125 151.844C187.918 152.137 188.798 151.73 189.09 150.936C189.383 150.143 188.976 149.263 188.183 148.97C187.389 148.678 186.509 149.085 186.217 149.878C185.924 150.672 186.331 151.552 187.125 151.844Z" fill="#E90303"/>
<path d="M189.718 157.462C190.512 157.754 191.392 157.347 191.684 156.554C191.977 155.76 191.57 154.88 190.777 154.588C189.983 154.295 189.103 154.702 188.811 155.496C188.518 156.289 188.925 157.169 189.718 157.462Z" fill="#E90303"/>
</g>
<g clip-path="url(#clip23_458_17301)">
<path d="M101.989 129.825C102.783 130.117 103.663 129.711 103.955 128.917C104.247 128.123 103.841 127.243 103.047 126.951C102.254 126.659 101.373 127.065 101.081 127.859C100.789 128.652 101.196 129.533 101.989 129.825Z" fill="#E90303"/>
<path d="M104.583 135.442C105.377 135.734 106.257 135.328 106.549 134.534C106.842 133.74 106.435 132.86 105.642 132.568C104.848 132.276 103.968 132.682 103.676 133.476C103.383 134.27 103.79 135.15 104.583 135.442Z" fill="#E90303"/>
</g>
<g clip-path="url(#clip24_458_17301)">
<path d="M110.201 132.848C110.994 133.14 111.874 132.733 112.167 131.94C112.459 131.146 112.052 130.266 111.259 129.974C110.465 129.682 109.585 130.088 109.293 130.882C109.001 131.675 109.407 132.556 110.201 132.848Z" fill="#E90303"/>
<path d="M112.795 138.465C113.588 138.757 114.468 138.351 114.761 137.557C115.053 136.763 114.646 135.883 113.853 135.591C113.059 135.299 112.179 135.705 111.887 136.499C111.595 137.293 112.001 138.173 112.795 138.465Z" fill="#E90303"/>
</g>
<g clip-path="url(#clip25_458_17301)">
<path d="M118.412 135.871C119.205 136.163 120.085 135.756 120.378 134.963C120.67 134.169 120.263 133.289 119.47 132.997C118.676 132.705 117.796 133.111 117.504 133.905C117.212 134.698 117.618 135.579 118.412 135.871Z" fill="#E90303"/>
<path d="M121.006 141.488C121.799 141.78 122.68 141.374 122.972 140.58C123.264 139.786 122.858 138.906 122.064 138.614C121.27 138.322 120.39 138.728 120.098 139.522C119.806 140.316 120.212 141.196 121.006 141.488Z" fill="#E90303"/>
</g>
<g clip-path="url(#clip26_458_17301)">
<path d="M126.623 138.894C127.417 139.186 128.297 138.78 128.589 137.986C128.881 137.193 128.475 136.312 127.681 136.02C126.887 135.728 126.007 136.135 125.715 136.928C125.423 137.722 125.829 138.602 126.623 138.894Z" fill="#E90303"/>
<path d="M129.217 144.511C130.011 144.804 130.891 144.397 131.183 143.603C131.475 142.81 131.069 141.93 130.275 141.637C129.481 141.345 128.601 141.752 128.309 142.545C128.017 143.339 128.423 144.219 129.217 144.511Z" fill="#E90303"/>
</g>
<g clip-path="url(#clip27_458_17301)">
<path d="M134.834 141.917C135.628 142.209 136.508 141.803 136.8 141.009C137.092 140.216 136.686 139.335 135.892 139.043C135.098 138.751 134.218 139.158 133.926 139.951C133.634 140.745 134.04 141.625 134.834 141.917Z" fill="#E90303"/>
<path d="M137.428 147.534C138.222 147.826 139.102 147.42 139.394 146.626C139.686 145.833 139.28 144.953 138.486 144.66C137.693 144.368 136.812 144.775 136.52 145.568C136.228 146.362 136.635 147.242 137.428 147.534Z" fill="#E90303"/>
</g>
<g clip-path="url(#clip28_458_17301)">
<path d="M143.045 144.94C143.839 145.232 144.719 144.826 145.011 144.032C145.304 143.239 144.897 142.358 144.103 142.066C143.31 141.774 142.43 142.18 142.137 142.974C141.845 143.768 142.252 144.648 143.045 144.94Z" fill="#E90303"/>
<path d="M145.639 150.557C146.433 150.849 147.313 150.443 147.605 149.649C147.898 148.856 147.491 147.976 146.697 147.683C145.904 147.391 145.024 147.798 144.731 148.591C144.439 149.385 144.846 150.265 145.639 150.557Z" fill="#E90303"/>
</g>
<g clip-path="url(#clip29_458_17301)">
<path d="M151.257 147.963C152.05 148.255 152.93 147.849 153.223 147.055C153.515 146.261 153.108 145.381 152.315 145.089C151.521 144.797 150.641 145.203 150.349 145.997C150.056 146.791 150.463 147.671 151.257 147.963Z" fill="#E90303"/>
<path d="M153.851 153.58C154.644 153.872 155.524 153.466 155.817 152.672C156.109 151.879 155.702 150.998 154.909 150.706C154.115 150.414 153.235 150.821 152.943 151.614C152.65 152.408 153.057 153.288 153.851 153.58Z" fill="#E90303"/>
</g>
<g clip-path="url(#clip30_458_17301)">
<path d="M159.468 150.986C160.261 151.279 161.142 150.872 161.434 150.079C161.726 149.285 161.319 148.405 160.526 148.113C159.732 147.82 158.852 148.227 158.56 149.02C158.268 149.814 158.674 150.694 159.468 150.986Z" fill="#E90303"/>
<path d="M162.062 156.604C162.855 156.896 163.736 156.489 164.028 155.696C164.32 154.902 163.913 154.022 163.12 153.73C162.326 153.438 161.446 153.844 161.154 154.638C160.862 155.431 161.268 156.311 162.062 156.604Z" fill="#E90303"/>
</g>
<g clip-path="url(#clip31_458_17301)">
<path d="M167.679 154.009C168.473 154.302 169.353 153.895 169.645 153.101C169.937 152.308 169.531 151.428 168.737 151.135C167.943 150.843 167.063 151.25 166.771 152.043C166.479 152.837 166.885 153.717 167.679 154.009Z" fill="#E90303"/>
<path d="M170.273 159.627C171.067 159.919 171.947 159.512 172.239 158.719C172.531 157.925 172.125 157.045 171.331 156.753C170.538 156.46 169.657 156.867 169.365 157.661C169.073 158.454 169.48 159.334 170.273 159.627Z" fill="#E90303"/>
</g>
<g clip-path="url(#clip32_458_17301)">
<path d="M175.89 157.032C176.684 157.325 177.564 156.918 177.856 156.124C178.148 155.331 177.742 154.451 176.948 154.158C176.155 153.866 175.274 154.273 174.982 155.066C174.69 155.86 175.097 156.74 175.89 157.032Z" fill="#E90303"/>
<path d="M178.484 162.65C179.278 162.942 180.158 162.535 180.45 161.742C180.742 160.948 180.336 160.068 179.542 159.776C178.749 159.483 177.868 159.89 177.576 160.684C177.284 161.477 177.691 162.357 178.484 162.65Z" fill="#E90303"/>
</g>
<g clip-path="url(#clip33_458_17301)">
<path d="M184.101 160.055C184.895 160.347 185.775 159.941 186.067 159.147C186.359 158.354 185.953 157.474 185.159 157.181C184.366 156.889 183.486 157.296 183.193 158.089C182.901 158.883 183.308 159.763 184.101 160.055Z" fill="#E90303"/>
<path d="M186.696 165.672C187.489 165.965 188.369 165.558 188.662 164.765C188.954 163.971 188.547 163.091 187.754 162.799C186.96 162.506 186.08 162.913 185.788 163.706C185.495 164.5 185.902 165.38 186.696 165.672Z" fill="#E90303"/>
</g>
<g clip-path="url(#clip34_458_17301)">
<path d="M192.312 163.078C193.106 163.37 193.986 162.964 194.278 162.17C194.571 161.377 194.164 160.496 193.371 160.204C192.577 159.912 191.697 160.319 191.405 161.112C191.112 161.906 191.519 162.786 192.312 163.078Z" fill="#E90303"/>
<path d="M194.906 168.695C195.7 168.988 196.58 168.581 196.872 167.788C197.165 166.994 196.758 166.114 195.965 165.822C195.171 165.529 194.291 165.936 193.999 166.729C193.706 167.523 194.113 168.403 194.906 168.695Z" fill="#E90303"/>
</g>
<g clip-path="url(#clip35_458_17301)">
<path d="M98.9663 138.036C99.7599 138.328 100.64 137.921 100.932 137.128C101.224 136.334 100.818 135.454 100.024 135.162C99.2308 134.87 98.3505 135.276 98.0584 136.07C97.7662 136.863 98.1727 137.744 98.9663 138.036Z" fill="#E90303"/>
<path d="M101.561 143.653C102.354 143.945 103.234 143.539 103.527 142.745C103.819 141.951 103.412 141.071 102.619 140.779C101.825 140.487 100.945 140.893 100.653 141.687C100.36 142.481 100.767 143.361 101.561 143.653Z" fill="#E90303"/>
</g>
<g clip-path="url(#clip36_458_17301)">
<path d="M107.177 141.059C107.971 141.351 108.851 140.944 109.143 140.151C109.436 139.357 109.029 138.477 108.236 138.185C107.442 137.893 106.562 138.299 106.27 139.093C105.977 139.886 106.384 140.767 107.177 141.059Z" fill="#E90303"/>
<path d="M109.772 146.676C110.565 146.969 111.446 146.562 111.738 145.768C112.03 144.975 111.623 144.095 110.83 143.802C110.036 143.51 109.156 143.917 108.864 144.71C108.572 145.504 108.978 146.384 109.772 146.676Z" fill="#E90303"/>
</g>
<g clip-path="url(#clip37_458_17301)">
<path d="M115.389 144.082C116.182 144.374 117.062 143.968 117.355 143.174C117.647 142.381 117.24 141.5 116.447 141.208C115.653 140.916 114.773 141.323 114.481 142.116C114.189 142.91 114.595 143.79 115.389 144.082Z" fill="#E90303"/>
<path d="M117.983 149.699C118.777 149.992 119.657 149.585 119.949 148.791C120.241 147.998 119.835 147.118 119.041 146.825C118.247 146.533 117.367 146.94 117.075 147.733C116.783 148.527 117.189 149.407 117.983 149.699Z" fill="#E90303"/>
</g>
<g clip-path="url(#clip38_458_17301)">
<path d="M123.6 147.105C124.393 147.397 125.274 146.991 125.566 146.197C125.858 145.404 125.452 144.523 124.658 144.231C123.864 143.939 122.984 144.345 122.692 145.139C122.4 145.933 122.806 146.813 123.6 147.105Z" fill="#E90303"/>
<path d="M126.194 152.722C126.988 153.014 127.868 152.608 128.16 151.814C128.452 151.021 128.046 150.141 127.252 149.848C126.459 149.556 125.578 149.963 125.286 150.756C124.994 151.55 125.4 152.43 126.194 152.722Z" fill="#E90303"/>
</g>
<g clip-path="url(#clip39_458_17301)">
<path d="M131.811 150.128C132.605 150.42 133.485 150.014 133.777 149.22C134.069 148.427 133.663 147.546 132.869 147.254C132.075 146.962 131.195 147.368 130.903 148.162C130.611 148.956 131.017 149.836 131.811 150.128Z" fill="#E90303"/>
<path d="M134.405 155.745C135.199 156.037 136.079 155.631 136.371 154.837C136.663 154.044 136.257 153.163 135.463 152.871C134.67 152.579 133.79 152.986 133.497 153.779C133.205 154.573 133.612 155.453 134.405 155.745Z" fill="#E90303"/>
</g>
<g clip-path="url(#clip40_458_17301)">
<path d="M140.022 153.151C140.816 153.443 141.696 153.037 141.988 152.243C142.281 151.449 141.874 150.569 141.081 150.277C140.287 149.985 139.407 150.391 139.115 151.185C138.822 151.979 139.229 152.859 140.022 153.151Z" fill="#E90303"/>
<path d="M142.616 158.768C143.41 159.06 144.29 158.654 144.582 157.86C144.875 157.067 144.468 156.186 143.675 155.894C142.881 155.602 142.001 156.009 141.709 156.802C141.416 157.596 141.823 158.476 142.616 158.768Z" fill="#E90303"/>
</g>
<g clip-path="url(#clip41_458_17301)">
<path d="M148.234 156.174C149.027 156.466 149.907 156.06 150.2 155.266C150.492 154.472 150.085 153.592 149.292 153.3C148.498 153.008 147.618 153.414 147.326 154.208C147.034 155.002 147.44 155.882 148.234 156.174Z" fill="#E90303"/>
<path d="M150.828 161.791C151.621 162.083 152.501 161.677 152.794 160.883C153.086 160.09 152.679 159.209 151.886 158.917C151.092 158.625 150.212 159.032 149.92 159.825C149.628 160.619 150.034 161.499 150.828 161.791Z" fill="#E90303"/>
</g>
<g clip-path="url(#clip42_458_17301)">
<path d="M156.445 159.197C157.238 159.489 158.118 159.083 158.411 158.289C158.703 157.495 158.296 156.615 157.503 156.323C156.709 156.031 155.829 156.437 155.537 157.231C155.244 158.025 155.651 158.905 156.445 159.197Z" fill="#E90303"/>
<path d="M159.039 164.814C159.832 165.106 160.712 164.7 161.005 163.906C161.297 163.113 160.89 162.232 160.097 161.94C159.303 161.648 158.423 162.054 158.131 162.848C157.838 163.642 158.245 164.522 159.039 164.814Z" fill="#E90303"/>
</g>
<g clip-path="url(#clip43_458_17301)">
<path d="M164.656 162.22C165.45 162.513 166.33 162.106 166.622 161.312C166.914 160.519 166.508 159.639 165.714 159.346C164.92 159.054 164.04 159.461 163.748 160.254C163.456 161.048 163.862 161.928 164.656 162.22Z" fill="#E90303"/>
<path d="M167.25 167.838C168.044 168.13 168.924 167.723 169.216 166.93C169.508 166.136 169.102 165.256 168.308 164.964C167.514 164.671 166.634 165.078 166.342 165.872C166.05 166.665 166.456 167.545 167.25 167.838Z" fill="#E90303"/>
</g>
<g clip-path="url(#clip44_458_17301)">
<path d="M172.867 165.243C173.661 165.535 174.541 165.129 174.833 164.335C175.125 163.542 174.719 162.662 173.925 162.369C173.132 162.077 172.251 162.484 171.959 163.277C171.667 164.071 172.074 164.951 172.867 165.243Z" fill="#E90303"/>
<path d="M175.461 170.86C176.255 171.153 177.135 170.746 177.427 169.953C177.719 169.159 177.313 168.279 176.519 167.987C175.726 167.694 174.845 168.101 174.553 168.894C174.261 169.688 174.668 170.568 175.461 170.86Z" fill="#E90303"/>
</g>
<g clip-path="url(#clip45_458_17301)">
<path d="M181.078 168.266C181.872 168.558 182.752 168.152 183.044 167.358C183.337 166.565 182.93 165.684 182.136 165.392C181.343 165.1 180.463 165.507 180.17 166.3C179.878 167.094 180.285 167.974 181.078 168.266Z" fill="#E90303"/>
<path d="M183.672 173.883C184.466 174.176 185.346 173.769 185.638 172.975C185.931 172.182 185.524 171.302 184.73 171.009C183.937 170.717 183.057 171.124 182.764 171.917C182.472 172.711 182.879 173.591 183.672 173.883Z" fill="#E90303"/>
</g>
<g clip-path="url(#clip46_458_17301)">
<path d="M189.29 171.289C190.083 171.581 190.963 171.175 191.256 170.381C191.548 169.588 191.141 168.707 190.348 168.415C189.554 168.123 188.674 168.53 188.382 169.323C188.089 170.117 188.496 170.997 189.29 171.289Z" fill="#E90303"/>
<path d="M191.884 176.906C192.677 177.199 193.557 176.792 193.85 175.998C194.142 175.205 193.735 174.325 192.942 174.032C192.148 173.74 191.268 174.147 190.976 174.94C190.683 175.734 191.09 176.614 191.884 176.906Z" fill="#E90303"/>
</g>
<g clip-path="url(#clip47_458_17301)">
<path d="M95.9434 146.247C96.737 146.539 97.6172 146.133 97.9093 145.339C98.2015 144.546 97.795 143.665 97.0014 143.373C96.2078 143.081 95.3276 143.488 95.0354 144.281C94.7432 145.075 95.1497 145.955 95.9434 146.247Z" fill="#E90303"/>
<path d="M98.5373 151.864C99.331 152.157 100.211 151.75 100.503 150.956C100.796 150.163 100.389 149.283 99.5954 148.99C98.8018 148.698 97.9216 149.105 97.6294 149.898C97.3372 150.692 97.7437 151.572 98.5373 151.864Z" fill="#E90303"/>
</g>
<g clip-path="url(#clip48_458_17301)">
<path d="M104.155 149.27C104.948 149.562 105.828 149.156 106.121 148.362C106.413 147.569 106.006 146.688 105.213 146.396C104.419 146.104 103.539 146.511 103.247 147.304C102.954 148.098 103.361 148.978 104.155 149.27Z" fill="#E90303"/>
<path d="M106.749 154.887C107.542 155.18 108.422 154.773 108.715 153.979C109.007 153.186 108.6 152.306 107.807 152.013C107.013 151.721 106.133 152.128 105.841 152.921C105.548 153.715 105.955 154.595 106.749 154.887Z" fill="#E90303"/>
</g>
<g clip-path="url(#clip49_458_17301)">
<path d="M112.366 152.293C113.159 152.585 114.04 152.179 114.332 151.385C114.624 150.592 114.217 149.711 113.424 149.419C112.63 149.127 111.75 149.533 111.458 150.327C111.166 151.121 111.572 152.001 112.366 152.293Z" fill="#E90303"/>
<path d="M114.96 157.91C115.753 158.202 116.634 157.796 116.926 157.002C117.218 156.209 116.811 155.329 116.018 155.036C115.224 154.744 114.344 155.151 114.052 155.944C113.76 156.738 114.166 157.618 114.96 157.91Z" fill="#E90303"/>
</g>
<g clip-path="url(#clip50_458_17301)">
<path d="M120.577 155.317C121.371 155.609 122.251 155.202 122.543 154.409C122.835 153.615 122.429 152.735 121.635 152.443C120.841 152.15 119.961 152.557 119.669 153.351C119.377 154.144 119.783 155.024 120.577 155.317Z" fill="#E90303"/>
<path d="M123.171 160.934C123.965 161.226 124.845 160.819 125.137 160.026C125.429 159.232 125.023 158.352 124.229 158.06C123.435 157.768 122.555 158.174 122.263 158.968C121.971 159.761 122.377 160.642 123.171 160.934Z" fill="#E90303"/>
</g>
<g clip-path="url(#clip51_458_17301)">
<path d="M128.788 158.339C129.582 158.632 130.462 158.225 130.754 157.432C131.046 156.638 130.64 155.758 129.846 155.466C129.053 155.173 128.172 155.58 127.88 156.373C127.588 157.167 127.994 158.047 128.788 158.339Z" fill="#E90303"/>
<path d="M131.382 163.957C132.176 164.249 133.056 163.842 133.348 163.049C133.64 162.255 133.234 161.375 132.44 161.083C131.647 160.791 130.766 161.197 130.474 161.991C130.182 162.784 130.588 163.664 131.382 163.957Z" fill="#E90303"/>
</g>
<g clip-path="url(#clip52_458_17301)">
<path d="M136.999 161.362C137.793 161.655 138.673 161.248 138.965 160.454C139.257 159.661 138.851 158.781 138.057 158.489C137.264 158.196 136.384 158.603 136.091 159.396C135.799 160.19 136.206 161.07 136.999 161.362Z" fill="#E90303"/>
<path d="M139.593 166.98C140.387 167.272 141.267 166.865 141.559 166.072C141.852 165.278 141.445 164.398 140.652 164.106C139.858 163.814 138.978 164.22 138.686 165.014C138.393 165.807 138.8 166.687 139.593 166.98Z" fill="#E90303"/>
</g>
<g clip-path="url(#clip53_458_17301)">
<path d="M145.21 164.385C146.004 164.678 146.884 164.271 147.176 163.477C147.469 162.684 147.062 161.804 146.269 161.511C145.475 161.219 144.595 161.626 144.303 162.419C144.01 163.213 144.417 164.093 145.21 164.385Z" fill="#E90303"/>
<path d="M147.805 170.003C148.598 170.295 149.478 169.888 149.771 169.095C150.063 168.301 149.656 167.421 148.863 167.129C148.069 166.836 147.189 167.243 146.897 168.037C146.605 168.83 147.011 169.71 147.805 170.003Z" fill="#E90303"/>
</g>
<g clip-path="url(#clip54_458_17301)">
<path d="M153.422 167.408C154.215 167.7 155.095 167.294 155.388 166.5C155.68 165.707 155.273 164.827 154.48 164.534C153.686 164.242 152.806 164.649 152.514 165.442C152.222 166.236 152.628 167.116 153.422 167.408Z" fill="#E90303"/>
<path d="M156.016 173.026C156.809 173.318 157.69 172.911 157.982 172.118C158.274 171.324 157.868 170.444 157.074 170.152C156.28 169.859 155.4 170.266 155.108 171.06C154.816 171.853 155.222 172.733 156.016 173.026Z" fill="#E90303"/>
</g>
<g clip-path="url(#clip55_458_17301)">
<path d="M161.633 170.431C162.426 170.723 163.307 170.317 163.599 169.523C163.891 168.73 163.484 167.85 162.691 167.557C161.897 167.265 161.017 167.672 160.725 168.465C160.433 169.259 160.839 170.139 161.633 170.431Z" fill="#E90303"/>
<path d="M164.227 176.048C165.021 176.341 165.901 175.934 166.193 175.141C166.485 174.347 166.079 173.467 165.285 173.175C164.491 172.882 163.611 173.289 163.319 174.082C163.027 174.876 163.433 175.756 164.227 176.048Z" fill="#E90303"/>
</g>
<g clip-path="url(#clip56_458_17301)">
<path d="M169.844 173.454C170.638 173.746 171.518 173.34 171.81 172.546C172.102 171.753 171.696 170.872 170.902 170.58C170.108 170.288 169.228 170.695 168.936 171.488C168.644 172.282 169.05 173.162 169.844 173.454Z" fill="#E90303"/>
<path d="M172.438 179.072C173.232 179.364 174.112 178.958 174.404 178.164C174.696 177.37 174.29 176.49 173.496 176.198C172.703 175.906 171.822 176.312 171.53 177.106C171.238 177.9 171.645 178.78 172.438 179.072Z" fill="#E90303"/>
</g>
<g clip-path="url(#clip57_458_17301)">
<path d="M178.055 176.478C178.849 176.77 179.729 176.363 180.021 175.57C180.313 174.776 179.907 173.896 179.113 173.604C178.32 173.312 177.439 173.718 177.147 174.512C176.855 175.305 177.262 176.185 178.055 176.478Z" fill="#E90303"/>
<path d="M180.649 182.095C181.443 182.387 182.323 181.981 182.615 181.187C182.908 180.393 182.501 179.513 181.707 179.221C180.914 178.929 180.034 179.335 179.741 180.129C179.449 180.922 179.856 181.803 180.649 182.095Z" fill="#E90303"/>
</g>
<g clip-path="url(#clip58_458_17301)">
<path d="M186.266 179.501C187.06 179.793 187.94 179.386 188.232 178.593C188.525 177.799 188.118 176.919 187.324 176.627C186.531 176.335 185.651 176.741 185.358 177.535C185.066 178.328 185.473 179.208 186.266 179.501Z" fill="#E90303"/>
<path d="M188.861 185.118C189.654 185.41 190.534 185.003 190.827 184.21C191.119 183.416 190.712 182.536 189.919 182.244C189.125 181.952 188.245 182.358 187.953 183.152C187.66 183.945 188.067 184.826 188.861 185.118Z" fill="#E90303"/>
</g>
<g clip-path="url(#clip59_458_17301)">
<path d="M194.478 182.524C195.271 182.816 196.151 182.409 196.444 181.616C196.736 180.822 196.329 179.942 195.536 179.65C194.742 179.357 193.862 179.764 193.57 180.558C193.277 181.351 193.684 182.231 194.478 182.524Z" fill="#E90303"/>
</g>
<g clip-path="url(#clip60_458_17301)">
<path d="M92.9204 154.459C93.714 154.751 94.5942 154.344 94.8864 153.551C95.1786 152.757 94.7721 151.877 93.9785 151.585C93.1849 151.293 92.3046 151.699 92.0125 152.493C91.7203 153.286 92.1268 154.166 92.9204 154.459Z" fill="#E90303"/>
<path d="M95.5144 160.076C96.308 160.368 97.1882 159.961 97.4804 159.168C97.7726 158.374 97.3661 157.494 96.5725 157.202C95.7788 156.91 94.8986 157.316 94.6065 158.11C94.3143 158.903 94.7208 159.784 95.5144 160.076Z" fill="#E90303"/>
</g>
<g clip-path="url(#clip61_458_17301)">
<path d="M101.132 157.482C101.925 157.774 102.805 157.367 103.098 156.574C103.39 155.78 102.983 154.9 102.19 154.608C101.396 154.315 100.516 154.722 100.224 155.516C99.9315 156.309 100.338 157.189 101.132 157.482Z" fill="#E90303"/>
<path d="M103.726 163.099C104.519 163.391 105.399 162.984 105.692 162.191C105.984 161.397 105.577 160.517 104.784 160.225C103.99 159.933 103.11 160.339 102.818 161.133C102.525 161.926 102.932 162.807 103.726 163.099Z" fill="#E90303"/>
</g>
<g clip-path="url(#clip62_458_17301)">
<path d="M109.343 160.505C110.136 160.797 111.017 160.39 111.309 159.597C111.601 158.803 111.194 157.923 110.401 157.631C109.607 157.338 108.727 157.745 108.435 158.539C108.143 159.332 108.549 160.212 109.343 160.505Z" fill="#E90303"/>
<path d="M111.937 166.122C112.73 166.414 113.611 166.007 113.903 165.214C114.195 164.42 113.788 163.54 112.995 163.248C112.201 162.956 111.321 163.362 111.029 164.156C110.737 164.949 111.143 165.83 111.937 166.122Z" fill="#E90303"/>
</g>
<g clip-path="url(#clip63_458_17301)">
<path d="M117.554 163.527C118.348 163.82 119.228 163.413 119.52 162.62C119.812 161.826 119.406 160.946 118.612 160.654C117.818 160.361 116.938 160.768 116.646 161.561C116.354 162.355 116.76 163.235 117.554 163.527Z" fill="#E90303"/>
<path d="M120.148 169.145C120.942 169.437 121.822 169.03 122.114 168.237C122.406 167.443 122 166.563 121.206 166.271C120.412 165.979 119.532 166.385 119.24 167.179C118.948 167.972 119.354 168.852 120.148 169.145Z" fill="#E90303"/>
</g>
<g clip-path="url(#clip64_458_17301)">
<path d="M125.765 166.55C126.559 166.843 127.439 166.436 127.731 165.642C128.023 164.849 127.617 163.969 126.823 163.676C126.03 163.384 125.149 163.791 124.857 164.584C124.565 165.378 124.972 166.258 125.765 166.55Z" fill="#E90303"/>
<path d="M128.359 172.168C129.153 172.46 130.033 172.053 130.325 171.26C130.617 170.466 130.211 169.586 129.417 169.294C128.624 169.002 127.743 169.408 127.451 170.202C127.159 170.995 127.566 171.875 128.359 172.168Z" fill="#E90303"/>
</g>
<g clip-path="url(#clip65_458_17301)">
<path d="M133.976 169.573C134.77 169.866 135.65 169.459 135.942 168.665C136.234 167.872 135.828 166.992 135.034 166.699C134.241 166.407 133.361 166.814 133.068 167.607C132.776 168.401 133.183 169.281 133.976 169.573Z" fill="#E90303"/>
<path d="M136.57 175.191C137.364 175.483 138.244 175.076 138.536 174.283C138.828 173.489 138.422 172.609 137.628 172.317C136.835 172.024 135.955 172.431 135.662 173.225C135.37 174.018 135.777 174.898 136.57 175.191Z" fill="#E90303"/>
</g>
<g clip-path="url(#clip66_458_17301)">
<path d="M142.187 172.596C142.981 172.888 143.861 172.482 144.153 171.688C144.446 170.895 144.039 170.015 143.246 169.722C142.452 169.43 141.572 169.837 141.28 170.63C140.987 171.424 141.394 172.304 142.187 172.596Z" fill="#E90303"/>
<path d="M144.782 178.214C145.575 178.506 146.456 178.1 146.748 177.306C147.04 176.512 146.633 175.632 145.84 175.34C145.046 175.048 144.166 175.454 143.874 176.248C143.582 177.042 143.988 177.922 144.782 178.214Z" fill="#E90303"/>
</g>
<g clip-path="url(#clip67_458_17301)">
<path d="M150.399 175.62C151.192 175.912 152.072 175.505 152.365 174.712C152.657 173.918 152.25 173.038 151.457 172.746C150.663 172.454 149.783 172.86 149.491 173.654C149.199 174.447 149.605 175.328 150.399 175.62Z" fill="#E90303"/>
<path d="M152.993 181.237C153.786 181.529 154.666 181.123 154.959 180.329C155.251 179.535 154.844 178.655 154.051 178.363C153.257 178.071 152.377 178.477 152.085 179.271C151.793 180.065 152.199 180.945 152.993 181.237Z" fill="#E90303"/>
</g>
<g clip-path="url(#clip68_458_17301)">
<path d="M158.61 178.643C159.403 178.935 160.284 178.528 160.576 177.735C160.868 176.941 160.462 176.061 159.668 175.769C158.874 175.477 157.994 175.883 157.702 176.677C157.41 177.47 157.816 178.351 158.61 178.643Z" fill="#E90303"/>
<path d="M161.204 184.26C161.998 184.552 162.878 184.146 163.17 183.352C163.462 182.558 163.056 181.678 162.262 181.386C161.469 181.094 160.588 181.5 160.296 182.294C160.004 183.088 160.41 183.968 161.204 184.26Z" fill="#E90303"/>
</g>
<g clip-path="url(#clip69_458_17301)">
<path d="M166.821 181.666C167.615 181.958 168.495 181.551 168.787 180.758C169.079 179.964 168.673 179.084 167.879 178.792C167.085 178.5 166.205 178.906 165.913 179.7C165.621 180.493 166.027 181.373 166.821 181.666Z" fill="#E90303"/>
<path d="M169.415 187.283C170.209 187.575 171.089 187.169 171.381 186.375C171.673 185.581 171.267 184.701 170.473 184.409C169.68 184.117 168.8 184.523 168.507 185.317C168.215 186.11 168.622 186.991 169.415 187.283Z" fill="#E90303"/>
</g>
<g clip-path="url(#clip70_458_17301)">
<path d="M175.032 184.689C175.826 184.981 176.706 184.574 176.998 183.781C177.29 182.987 176.884 182.107 176.09 181.815C175.297 181.522 174.416 181.929 174.124 182.723C173.832 183.516 174.239 184.396 175.032 184.689Z" fill="#E90303"/>
<path d="M177.626 190.306C178.42 190.598 179.3 190.191 179.592 189.398C179.885 188.604 179.478 187.724 178.685 187.432C177.891 187.14 177.011 187.546 176.719 188.34C176.426 189.133 176.833 190.014 177.626 190.306Z" fill="#E90303"/>
</g>
<g clip-path="url(#clip71_458_17301)">
<path d="M183.243 187.712C184.037 188.004 184.917 187.598 185.209 186.804C185.502 186.01 185.095 185.13 184.301 184.838C183.508 184.546 182.628 184.952 182.335 185.746C182.043 186.54 182.45 187.42 183.243 187.712Z" fill="#E90303"/>
<path d="M185.838 193.329C186.631 193.621 187.511 193.215 187.804 192.421C188.096 191.628 187.689 190.747 186.896 190.455C186.102 190.163 185.222 190.57 184.93 191.363C184.638 192.157 185.044 193.037 185.838 193.329Z" fill="#E90303"/>
</g>
<g clip-path="url(#clip72_458_17301)">
<path d="M191.455 190.735C192.248 191.027 193.128 190.621 193.421 189.827C193.713 189.033 193.306 188.153 192.513 187.861C191.719 187.569 190.839 187.975 190.547 188.769C190.254 189.563 190.661 190.443 191.455 190.735Z" fill="#E90303"/>
</g>
<g clip-path="url(#clip73_458_17301)">
<path d="M89.8972 162.67C90.6908 162.962 91.571 162.555 91.8632 161.762C92.1554 160.968 91.7489 160.088 90.9553 159.796C90.1617 159.503 89.2815 159.91 88.9893 160.704C88.6971 161.497 89.1036 162.377 89.8972 162.67Z" fill="#E90303"/>
<path d="M92.4914 168.287C93.2851 168.579 94.1653 168.172 94.4574 167.379C94.7496 166.585 94.3431 165.705 93.5495 165.413C92.7559 165.121 91.8757 165.527 91.5835 166.321C91.2913 167.114 91.6978 167.995 92.4914 168.287Z" fill="#E90303"/>
</g>
<g clip-path="url(#clip74_458_17301)">
<path d="M98.1084 165.693C98.902 165.985 99.7822 165.578 100.074 164.785C100.367 163.991 99.9601 163.111 99.1665 162.819C98.3728 162.526 97.4926 162.933 97.2005 163.727C96.9083 164.52 97.3148 165.4 98.1084 165.693Z" fill="#E90303"/>
<path d="M100.703 171.31C101.496 171.602 102.376 171.195 102.669 170.402C102.961 169.608 102.554 168.728 101.761 168.436C100.967 168.144 100.087 168.55 99.7947 169.344C99.5025 170.137 99.909 171.018 100.703 171.31Z" fill="#E90303"/>
</g>
<g clip-path="url(#clip75_458_17301)">
<path d="M106.32 168.715C107.113 169.008 107.993 168.601 108.286 167.808C108.578 167.014 108.171 166.134 107.378 165.842C106.584 165.549 105.704 165.956 105.412 166.749C105.119 167.543 105.526 168.423 106.32 168.715Z" fill="#E90303"/>
<path d="M108.914 174.333C109.707 174.625 110.588 174.218 110.88 173.425C111.172 172.631 110.765 171.751 109.972 171.459C109.178 171.167 108.298 171.573 108.006 172.367C107.714 173.16 108.12 174.04 108.914 174.333Z" fill="#E90303"/>
</g>
<g clip-path="url(#clip76_458_17301)">
<path d="M114.531 171.739C115.324 172.031 116.205 171.625 116.497 170.831C116.789 170.037 116.382 169.157 115.589 168.865C114.795 168.573 113.915 168.979 113.623 169.773C113.331 170.567 113.737 171.447 114.531 171.739Z" fill="#E90303"/>
<path d="M117.125 177.356C117.919 177.648 118.799 177.242 119.091 176.448C119.383 175.655 118.977 174.774 118.183 174.482C117.389 174.19 116.509 174.596 116.217 175.39C115.925 176.184 116.331 177.064 117.125 177.356Z" fill="#E90303"/>
</g>
<g clip-path="url(#clip77_458_17301)">
<path d="M122.742 174.762C123.536 175.054 124.416 174.648 124.708 173.854C125 173.06 124.594 172.18 123.8 171.888C123.006 171.596 122.126 172.002 121.834 172.796C121.542 173.589 121.948 174.47 122.742 174.762Z" fill="#E90303"/>
<path d="M125.336 180.379C126.13 180.671 127.01 180.265 127.302 179.471C127.594 178.677 127.188 177.797 126.394 177.505C125.601 177.213 124.72 177.619 124.428 178.413C124.136 179.207 124.543 180.087 125.336 180.379Z" fill="#E90303"/>
</g>
<g clip-path="url(#clip78_458_17301)">
<path d="M130.953 177.785C131.747 178.077 132.627 177.67 132.919 176.877C133.211 176.083 132.805 175.203 132.011 174.911C131.218 174.619 130.337 175.025 130.045 175.819C129.753 176.612 130.16 177.493 130.953 177.785Z" fill="#E90303"/>
<path d="M133.547 183.402C134.341 183.694 135.221 183.288 135.513 182.494C135.806 181.7 135.399 180.82 134.605 180.528C133.812 180.236 132.932 180.642 132.639 181.436C132.347 182.23 132.754 183.11 133.547 183.402Z" fill="#E90303"/>
</g>
<g clip-path="url(#clip79_458_17301)">
<path d="M139.165 180.808C139.958 181.1 140.838 180.693 141.131 179.9C141.423 179.106 141.016 178.226 140.223 177.934C139.429 177.642 138.549 178.048 138.257 178.842C137.964 179.635 138.371 180.516 139.165 180.808Z" fill="#E90303"/>
<path d="M141.759 186.425C142.552 186.717 143.432 186.311 143.725 185.517C144.017 184.723 143.61 183.843 142.817 183.551C142.023 183.259 141.143 183.665 140.851 184.459C140.558 185.253 140.965 186.133 141.759 186.425Z" fill="#E90303"/>
</g>
<g clip-path="url(#clip80_458_17301)">
<path d="M147.375 183.831C148.169 184.123 149.049 183.717 149.341 182.923C149.634 182.13 149.227 181.249 148.434 180.957C147.64 180.665 146.76 181.072 146.468 181.865C146.175 182.659 146.582 183.539 147.375 183.831Z" fill="#E90303"/>
<path d="M149.97 189.448C150.763 189.741 151.644 189.334 151.936 188.54C152.228 187.747 151.821 186.867 151.028 186.574C150.234 186.282 149.354 186.689 149.062 187.482C148.77 188.276 149.176 189.156 149.97 189.448Z" fill="#E90303"/>
</g>
<g clip-path="url(#clip81_458_17301)">
<path d="M155.587 186.854C156.381 187.146 157.261 186.74 157.553 185.946C157.845 185.153 157.439 184.272 156.645 183.98C155.851 183.688 154.971 184.095 154.679 184.888C154.387 185.682 154.793 186.562 155.587 186.854Z" fill="#E90303"/>
<path d="M158.181 192.471C158.975 192.763 159.855 192.357 160.147 191.563C160.439 190.77 160.033 189.89 159.239 189.597C158.445 189.305 157.565 189.712 157.273 190.505C156.981 191.299 157.387 192.179 158.181 192.471Z" fill="#E90303"/>
</g>
<g clip-path="url(#clip82_458_17301)">
<path d="M163.798 189.877C164.591 190.169 165.472 189.763 165.764 188.969C166.056 188.176 165.65 187.295 164.856 187.003C164.062 186.711 163.182 187.117 162.89 187.911C162.598 188.705 163.004 189.585 163.798 189.877Z" fill="#E90303"/>
<path d="M166.392 195.494C167.186 195.786 168.066 195.38 168.358 194.586C168.65 193.793 168.244 192.913 167.45 192.62C166.657 192.328 165.776 192.735 165.484 193.528C165.192 194.322 165.598 195.202 166.392 195.494Z" fill="#E90303"/>
</g>
<g clip-path="url(#clip83_458_17301)">
<path d="M172.009 192.9C172.803 193.192 173.683 192.786 173.975 191.992C174.267 191.198 173.861 190.318 173.067 190.026C172.274 189.734 171.394 190.14 171.101 190.934C170.809 191.728 171.216 192.608 172.009 192.9Z" fill="#E90303"/>
</g>
<g clip-path="url(#clip84_458_17301)">
<path d="M86.8743 170.881C87.6679 171.173 88.5481 170.767 88.8403 169.973C89.1324 169.179 88.7259 168.299 87.9323 168.007C87.1387 167.715 86.2585 168.121 85.9663 168.915C85.6742 169.709 86.0806 170.589 86.8743 170.881Z" fill="#E90303"/>
<path d="M89.4683 176.498C90.2619 176.79 91.1421 176.384 91.4342 175.59C91.7264 174.797 91.3199 173.916 90.5263 173.624C89.7327 173.332 88.8525 173.739 88.5603 174.532C88.2681 175.326 88.6746 176.206 89.4683 176.498Z" fill="#E90303"/>
</g>
<g clip-path="url(#clip85_458_17301)">
<path d="M95.0854 173.904C95.8791 174.196 96.7593 173.79 97.0514 172.996C97.3436 172.202 96.9371 171.322 96.1435 171.03C95.3499 170.738 94.4697 171.144 94.1775 171.938C93.8853 172.732 94.2918 173.612 95.0854 173.904Z" fill="#E90303"/>
<path d="M97.6797 179.521C98.4733 179.813 99.3535 179.407 99.6457 178.613C99.9378 177.82 99.5314 176.939 98.7377 176.647C97.9441 176.355 97.0639 176.762 96.7718 177.555C96.4796 178.349 96.8861 179.229 97.6797 179.521Z" fill="#E90303"/>
</g>
<g clip-path="url(#clip86_458_17301)">
<path d="M103.297 176.927C104.09 177.219 104.97 176.813 105.263 176.019C105.555 175.225 105.148 174.345 104.355 174.053C103.561 173.761 102.681 174.167 102.389 174.961C102.097 175.754 102.503 176.635 103.297 176.927Z" fill="#E90303"/>
<path d="M105.891 182.544C106.684 182.836 107.564 182.43 107.857 181.636C108.149 180.843 107.742 179.962 106.949 179.67C106.155 179.378 105.275 179.784 104.983 180.578C104.691 181.372 105.097 182.252 105.891 182.544Z" fill="#E90303"/>
</g>
<g clip-path="url(#clip87_458_17301)">
<path d="M111.508 179.95C112.301 180.242 113.182 179.836 113.474 179.042C113.766 178.249 113.359 177.369 112.566 177.076C111.772 176.784 110.892 177.191 110.6 177.984C110.308 178.778 110.714 179.658 111.508 179.95Z" fill="#E90303"/>
<path d="M114.102 185.568C114.896 185.86 115.776 185.453 116.068 184.66C116.36 183.866 115.954 182.986 115.16 182.694C114.366 182.401 113.486 182.808 113.194 183.602C112.902 184.395 113.308 185.275 114.102 185.568Z" fill="#E90303"/>
</g>
<g clip-path="url(#clip88_458_17301)">
<path d="M119.719 182.973C120.513 183.265 121.393 182.859 121.685 182.065C121.977 181.272 121.571 180.392 120.777 180.099C119.983 179.807 119.103 180.214 118.811 181.007C118.519 181.801 118.925 182.681 119.719 182.973Z" fill="#E90303"/>
<path d="M122.313 188.59C123.107 188.883 123.987 188.476 124.279 187.683C124.571 186.889 124.165 186.009 123.371 185.717C122.577 185.424 121.697 185.831 121.405 186.624C121.113 187.418 121.519 188.298 122.313 188.59Z" fill="#E90303"/>
</g>
<g clip-path="url(#clip89_458_17301)">
<path d="M127.93 185.996C128.724 186.288 129.604 185.882 129.896 185.088C130.188 184.295 129.782 183.414 128.988 183.122C128.195 182.83 127.314 183.237 127.022 184.03C126.73 184.824 127.137 185.704 127.93 185.996Z" fill="#E90303"/>
<path d="M130.524 191.613C131.318 191.906 132.198 191.499 132.49 190.705C132.783 189.912 132.376 189.032 131.582 188.739C130.789 188.447 129.909 188.854 129.616 189.647C129.324 190.441 129.731 191.321 130.524 191.613Z" fill="#E90303"/>
</g>
<g clip-path="url(#clip90_458_17301)">
<path d="M136.141 189.019C136.935 189.311 137.815 188.905 138.107 188.111C138.4 187.318 137.993 186.437 137.199 186.145C136.406 185.853 135.526 186.26 135.233 187.053C134.941 187.847 135.348 188.727 136.141 189.019Z" fill="#E90303"/>
<path d="M138.736 194.636C139.529 194.929 140.409 194.522 140.702 193.728C140.994 192.935 140.587 192.055 139.794 191.762C139 191.47 138.12 191.877 137.828 192.67C137.535 193.464 137.942 194.344 138.736 194.636Z" fill="#E90303"/>
</g>
<g clip-path="url(#clip91_458_17301)">
<path d="M144.353 192.042C145.146 192.334 146.026 191.928 146.319 191.134C146.611 190.341 146.204 189.46 145.411 189.168C144.617 188.876 143.737 189.283 143.445 190.076C143.152 190.87 143.559 191.75 144.353 192.042Z" fill="#E90303"/>
</g>
<g clip-path="url(#clip92_458_17301)">
<path d="M152.564 195.065C153.357 195.357 154.238 194.951 154.53 194.157C154.822 193.364 154.415 192.483 153.622 192.191C152.828 191.899 151.948 192.305 151.656 193.099C151.364 193.893 151.77 194.773 152.564 195.065Z" fill="#E90303"/>
</g>
<g clip-path="url(#clip93_458_17301)">
<path d="M92.0625 182.115C92.8561 182.407 93.7363 182.001 94.0285 181.207C94.3207 180.413 93.9142 179.533 93.1206 179.241C92.3269 178.949 91.4467 179.355 91.1546 180.149C90.8624 180.942 91.2689 181.823 92.0625 182.115Z" fill="#E90303"/>
<path d="M94.6565 187.732C95.4501 188.024 96.3303 187.618 96.6225 186.824C96.9147 186.031 96.5082 185.15 95.7145 184.858C94.9209 184.566 94.0407 184.972 93.7486 185.766C93.4564 186.56 93.8629 187.44 94.6565 187.732Z" fill="#E90303"/>
</g>
<g clip-path="url(#clip94_458_17301)">
<path d="M100.273 185.138C101.067 185.43 101.947 185.023 102.239 184.23C102.532 183.436 102.125 182.556 101.331 182.264C100.538 181.972 99.6577 182.378 99.3655 183.172C99.0733 183.965 99.4798 184.846 100.273 185.138Z" fill="#E90303"/>
<path d="M102.868 190.755C103.661 191.047 104.541 190.641 104.834 189.847C105.126 189.053 104.719 188.173 103.926 187.881C103.132 187.589 102.252 187.995 101.96 188.789C101.668 189.583 102.074 190.463 102.868 190.755Z" fill="#E90303"/>
</g>
<g clip-path="url(#clip95_458_17301)">
<path d="M108.485 188.161C109.278 188.453 110.159 188.047 110.451 187.253C110.743 186.46 110.337 185.58 109.543 185.287C108.749 184.995 107.869 185.402 107.577 186.195C107.285 186.989 107.691 187.869 108.485 188.161Z" fill="#E90303"/>
<path d="M111.079 193.778C111.872 194.071 112.753 193.664 113.045 192.871C113.337 192.077 112.931 191.197 112.137 190.905C111.343 190.612 110.463 191.019 110.171 191.812C109.879 192.606 110.285 193.486 111.079 193.778Z" fill="#E90303"/>
</g>
<g clip-path="url(#clip96_458_17301)">
<path d="M116.696 191.184C117.489 191.476 118.37 191.07 118.662 190.276C118.954 189.483 118.547 188.602 117.754 188.31C116.96 188.018 116.08 188.425 115.788 189.218C115.496 190.012 115.902 190.892 116.696 191.184Z" fill="#E90303"/>
</g>
<g clip-path="url(#clip97_458_17301)">
<path d="M124.907 194.207C125.701 194.499 126.581 194.093 126.873 193.299C127.165 192.506 126.759 191.625 125.965 191.333C125.172 191.041 124.291 191.448 123.999 192.241C123.707 193.035 124.114 193.915 124.907 194.207Z" fill="#E90303"/>
</g>
<g clip-path="url(#clip98_458_17301)">
<path d="M89.0393 190.326C89.8329 190.618 90.7131 190.212 91.0053 189.418C91.2975 188.625 90.891 187.745 90.0974 187.452C89.3037 187.16 88.4235 187.567 88.1314 188.36C87.8392 189.154 88.2457 190.034 89.0393 190.326Z" fill="#E90303"/>
</g>
<g clip-path="url(#clip99_458_17301)">
<path d="M97.2505 193.349C98.0441 193.641 98.9243 193.235 99.2165 192.441C99.5086 191.648 99.1022 190.767 98.3085 190.475C97.5149 190.183 96.6347 190.59 96.3426 191.383C96.0504 192.177 96.4569 193.057 97.2505 193.349Z" fill="#E90303"/>
</g>
</g>
</mask>
<g mask="url(#mask0_458_17301)">
<path fill-rule="evenodd" clip-rule="evenodd" d="M196.182 145.822L174.545 143.634L103.541 117.494L103.026 119.201C96.0315 142.382 109.306 167.408 133.278 176.234C157.25 185.059 183.583 174.615 193.29 152.432L196.182 145.822Z" fill="#E90303"/>
</g>
<path d="M99.3564 119.587L107.753 88.5737C115.482 60.0302 145.615 43.8529 173.676 53.1832C201.737 62.5135 216.184 93.5141 205.281 121.002L193.435 150.869C183.728 175.344 156.602 187.986 131.616 179.678C106.63 171.37 92.4751 145.002 99.3564 119.587Z" stroke="#E90303" stroke-width="8"/>
<mask id="path-195-inside-1_458_17301" fill="white">
<path fill-rule="evenodd" clip-rule="evenodd" d="M213.846 46.7675C220.492 50.702 223.495 58.7378 221.058 66.0663C219.623 70.3824 216.568 73.7045 212.794 75.5818C217.582 76.1166 221.985 79.4378 223.422 84.6816C227.166 98.3376 222.062 112.959 211.104 121.567C204.049 127.109 193.616 123.643 191.435 114.941C188.078 101.544 193.167 86.9457 203.676 78.3077C204.133 77.932 204.606 77.596 205.09 77.2985C203.502 77.2596 201.893 76.9878 200.308 76.4606L135.063 54.7664C122.601 50.6226 115.857 37.1606 120.001 24.6982C124.785 10.3095 141.633 4.0137 154.681 11.7387L213.846 46.7675Z"/>
</mask>
<path fill-rule="evenodd" clip-rule="evenodd" d="M213.846 46.7675C220.492 50.702 223.495 58.7378 221.058 66.0663C219.623 70.3824 216.568 73.7045 212.794 75.5818C217.582 76.1166 221.985 79.4378 223.422 84.6816C227.166 98.3376 222.062 112.959 211.104 121.567C204.049 127.109 193.616 123.643 191.435 114.941C188.078 101.544 193.167 86.9457 203.676 78.3077C204.133 77.932 204.606 77.596 205.09 77.2985C203.502 77.2596 201.893 76.9878 200.308 76.4606L135.063 54.7664C122.601 50.6226 115.857 37.1606 120.001 24.6982C124.785 10.3095 141.633 4.0137 154.681 11.7387L213.846 46.7675Z" fill="#E90303"/>
<path d="M213.846 46.7675L217.922 39.8835L217.922 39.8835L213.846 46.7675ZM212.794 75.5818L211.906 83.5323L184.909 80.517L209.231 68.4189L212.794 75.5818ZM223.422 84.6816L231.137 82.5664L231.137 82.5664L223.422 84.6816ZM211.104 121.567L216.046 127.858L216.046 127.858L211.104 121.567ZM191.435 114.941L183.675 116.885L183.675 116.885L191.435 114.941ZM203.676 78.3077L198.596 72.1274L198.596 72.1274L203.676 78.3077ZM205.09 77.2985L205.286 69.3009L232.317 69.9623L209.277 84.1151L205.09 77.2985ZM200.308 76.4606L197.784 84.052L197.784 84.052L200.308 76.4606ZM135.063 54.7664L137.587 47.175L137.587 47.175L135.063 54.7664ZM154.681 11.7387L158.756 4.85474L158.756 4.85474L154.681 11.7387ZM213.466 63.5422C214.715 59.7863 213.176 55.6679 209.77 53.6515L217.922 39.8835C227.807 45.7361 232.274 57.6894 228.649 68.5905L213.466 63.5422ZM209.231 68.4189C211.177 67.4512 212.73 65.7561 213.466 63.5422L228.649 68.5905C226.515 75.0086 221.959 79.9578 216.357 82.7446L209.231 68.4189ZM213.682 67.6312C221.511 68.5056 228.778 73.9592 231.137 82.5664L215.707 86.7967C215.191 84.9164 213.653 83.7275 211.906 83.5323L213.682 67.6312ZM231.137 82.5664C235.758 99.4192 229.46 117.321 216.046 127.858L206.162 115.276C214.665 108.597 218.574 97.256 215.707 86.7967L231.137 82.5664ZM216.046 127.858C204.528 136.906 187.295 131.327 183.675 116.885L199.195 112.996C199.938 115.958 203.57 117.312 206.162 115.276L216.046 127.858ZM183.675 116.885C179.543 100.398 185.773 82.6675 198.596 72.1274L208.756 84.4881C200.561 91.2238 196.613 102.69 199.195 112.996L183.675 116.885ZM198.596 72.1274C199.335 71.5205 200.105 70.9717 200.903 70.4818L209.277 84.1151C209.106 84.2203 208.932 84.3436 208.756 84.4881L198.596 72.1274ZM202.832 68.8693C203.657 69.1437 204.481 69.2812 205.286 69.3009L204.894 85.2961C202.523 85.2381 200.129 84.8319 197.784 84.052L202.832 68.8693ZM137.587 47.175L202.832 68.8693L197.784 84.052L132.539 62.3577L137.587 47.175ZM127.592 27.2224C124.842 35.4922 129.317 44.4253 137.587 47.175L132.539 62.3577C115.884 56.8199 106.872 38.829 112.409 22.174L127.592 27.2224ZM150.605 18.6227C141.947 13.4965 130.767 17.6743 127.592 27.2224L112.409 22.174C118.803 2.94474 141.319 -5.46912 158.756 4.85474L150.605 18.6227ZM209.77 53.6515L150.605 18.6227L158.756 4.85474L217.922 39.8835L209.77 53.6515Z" fill="#E90303" mask="url(#path-195-inside-1_458_17301)"/>
<path d="M189.885 131.045C187.986 136.756 191.075 142.924 196.785 144.822C202.495 146.721 208.662 143.631 210.561 137.92C212.46 132.21 209.37 126.042 203.661 124.143C197.951 122.245 191.783 125.335 189.885 131.045Z" fill="#F5EDD8"/>
<path fill-rule="evenodd" clip-rule="evenodd" d="M201.975 127.798C205.553 128.988 207.419 132.773 206.286 136.18C205.153 139.588 201.392 141.501 197.814 140.311C195.895 139.673 194.461 138.283 193.722 136.595C192.837 134.571 190.479 133.648 188.455 134.533C186.431 135.418 185.508 137.777 186.393 139.801C188.009 143.496 191.149 146.526 195.29 147.903C202.965 150.455 211.319 146.4 213.878 138.704C216.437 131.009 212.174 122.759 204.499 120.207C200.358 118.83 196.029 119.376 192.522 121.368C190.601 122.459 189.928 124.901 191.019 126.822C192.11 128.743 194.551 129.416 196.472 128.325C198.075 127.415 200.056 127.16 201.975 127.798Z" fill="#E90303"/>
<path d="M139.907 101.032C135.899 113.087 142.421 126.108 154.474 130.116C166.528 134.124 179.549 127.6 183.557 115.545C187.566 103.49 181.043 90.4687 168.99 86.4608C156.936 82.4529 143.915 88.9764 139.907 101.032Z" fill="#F5EDD8"/>
<path d="M90.258 84.8274C86.2496 96.8825 92.7716 109.904 104.825 113.912C116.879 117.92 129.9 111.396 133.908 99.3413C137.917 87.2862 131.395 74.2646 119.341 70.2567C107.287 66.2488 94.2663 72.7723 90.258 84.8274Z" fill="#F5EDD8"/>
<path fill-rule="evenodd" clip-rule="evenodd" d="M139.17 103.804C136.926 115.022 143.34 126.414 154.474 130.116C166.527 134.124 179.548 127.6 183.557 115.545C187.565 103.49 181.043 90.4687 168.989 86.4608C158.929 83.1156 148.195 87.1068 142.589 95.5272C141.607 94.6416 140.498 93.8969 139.211 93.4052C137.85 92.8851 136.472 92.7083 135.078 92.781C135.383 82.8811 129.22 73.5415 119.34 70.2567C107.287 66.2488 94.2659 72.7723 90.2575 84.8273C86.2492 96.8824 92.7712 109.904 104.825 113.912C116.199 117.694 128.434 112.099 133.145 101.327C135.248 100.579 136.03 100.754 136.355 100.878C136.867 101.074 137.66 101.667 139.17 103.804ZM156.998 122.525C149.138 119.911 144.883 111.419 147.498 103.556C150.112 95.6923 158.605 91.4385 166.465 94.0521C174.326 96.6657 178.58 105.158 175.965 113.021C173.351 120.885 164.858 125.138 156.998 122.525ZM107.349 106.321C99.4888 103.707 95.2343 95.2148 97.8489 87.3515C100.463 79.4882 108.956 75.2344 116.816 77.848C124.677 80.4616 128.931 88.9538 126.316 96.8171C123.702 104.68 115.209 108.934 107.349 106.321Z" fill="#E90303"/>
<defs>
<clipPath id="clip0_458_17301">
<rect width="91.8006" height="54" fill="white" transform="translate(107.656 110) rotate(20.2117)"/>
</clipPath>
<clipPath id="clip1_458_17301">
<rect width="8.75" height="8.75" fill="white" transform="translate(107.656 110) rotate(20.2117)"/>
</clipPath>
<clipPath id="clip2_458_17301">
<rect width="8.75" height="8.75" fill="white" transform="translate(115.868 113.022) rotate(20.2117)"/>
</clipPath>
<clipPath id="clip3_458_17301">
<rect width="8.75" height="8.75" fill="white" transform="translate(124.079 116.045) rotate(20.2117)"/>
</clipPath>
<clipPath id="clip4_458_17301">
<rect width="8.75" height="8.75" fill="white" transform="translate(132.29 119.069) rotate(20.2117)"/>
</clipPath>
<clipPath id="clip5_458_17301">
<rect width="8.75" height="8.75" fill="white" transform="translate(140.501 122.092) rotate(20.2117)"/>
</clipPath>
<clipPath id="clip6_458_17301">
<rect width="8.75" height="8.75" fill="white" transform="translate(148.712 125.115) rotate(20.2117)"/>
</clipPath>
<clipPath id="clip7_458_17301">
<rect width="8.75" height="8.75" fill="white" transform="translate(156.924 128.138) rotate(20.2117)"/>
</clipPath>
<clipPath id="clip8_458_17301">
<rect width="8.75" height="8.75" fill="white" transform="translate(165.135 131.161) rotate(20.2117)"/>
</clipPath>
<clipPath id="clip9_458_17301">
<rect width="8.75" height="8.75" fill="white" transform="translate(173.346 134.184) rotate(20.2117)"/>
</clipPath>
<clipPath id="clip10_458_17301">
<rect width="8.75" height="8.75" fill="white" transform="translate(181.557 137.207) rotate(20.2117)"/>
</clipPath>
<clipPath id="clip11_458_17301">
<rect width="8.75" height="8.75" fill="white" transform="translate(189.769 140.229) rotate(20.2117)"/>
</clipPath>
<clipPath id="clip12_458_17301">
<rect width="8.75" height="8.75" fill="white" transform="translate(104.634 118.211) rotate(20.2117)"/>
</clipPath>
<clipPath id="clip13_458_17301">
<rect width="8.75" height="8.75" fill="white" transform="translate(112.845 121.234) rotate(20.2117)"/>
</clipPath>
<clipPath id="clip14_458_17301">
<rect width="8.75" height="8.75" fill="white" transform="translate(121.056 124.257) rotate(20.2117)"/>
</clipPath>
<clipPath id="clip15_458_17301">
<rect width="8.75" height="8.75" fill="white" transform="translate(129.267 127.28) rotate(20.2117)"/>
</clipPath>
<clipPath id="clip16_458_17301">
<rect width="8.75" height="8.75" fill="white" transform="translate(137.478 130.303) rotate(20.2117)"/>
</clipPath>
<clipPath id="clip17_458_17301">
<rect width="8.75" height="8.75" fill="white" transform="translate(145.689 133.326) rotate(20.2117)"/>
</clipPath>
<clipPath id="clip18_458_17301">
<rect width="8.75" height="8.75" fill="white" transform="translate(153.901 136.349) rotate(20.2117)"/>
</clipPath>
<clipPath id="clip19_458_17301">
<rect width="8.75" height="8.75" fill="white" transform="translate(162.112 139.372) rotate(20.2117)"/>
</clipPath>
<clipPath id="clip20_458_17301">
<rect width="8.75" height="8.75" fill="white" transform="translate(170.323 142.395) rotate(20.2117)"/>
</clipPath>
<clipPath id="clip21_458_17301">
<rect width="8.75" height="8.75" fill="white" transform="translate(178.534 145.418) rotate(20.2117)"/>
</clipPath>
<clipPath id="clip22_458_17301">
<rect width="8.75" height="8.75" fill="white" transform="translate(186.746 148.441) rotate(20.2117)"/>
</clipPath>
<clipPath id="clip23_458_17301">
<rect width="8.75" height="8.75" fill="white" transform="translate(101.61 126.422) rotate(20.2117)"/>
</clipPath>
<clipPath id="clip24_458_17301">
<rect width="8.75" height="8.75" fill="white" transform="translate(109.822 129.445) rotate(20.2117)"/>
</clipPath>
<clipPath id="clip25_458_17301">
<rect width="8.75" height="8.75" fill="white" transform="translate(118.033 132.468) rotate(20.2117)"/>
</clipPath>
<clipPath id="clip26_458_17301">
<rect width="8.75" height="8.75" fill="white" transform="translate(126.244 135.491) rotate(20.2117)"/>
</clipPath>
<clipPath id="clip27_458_17301">
<rect width="8.75" height="8.75" fill="white" transform="translate(134.455 138.514) rotate(20.2117)"/>
</clipPath>
<clipPath id="clip28_458_17301">
<rect width="8.75" height="8.75" fill="white" transform="translate(142.667 141.537) rotate(20.2117)"/>
</clipPath>
<clipPath id="clip29_458_17301">
<rect width="8.75" height="8.75" fill="white" transform="translate(150.878 144.56) rotate(20.2117)"/>
</clipPath>
<clipPath id="clip30_458_17301">
<rect width="8.75" height="8.75" fill="white" transform="translate(159.089 147.583) rotate(20.2117)"/>
</clipPath>
<clipPath id="clip31_458_17301">
<rect width="8.75" height="8.75" fill="white" transform="translate(167.3 150.606) rotate(20.2117)"/>
</clipPath>
<clipPath id="clip32_458_17301">
<rect width="8.75" height="8.75" fill="white" transform="translate(175.511 153.629) rotate(20.2117)"/>
</clipPath>
<clipPath id="clip33_458_17301">
<rect width="8.75" height="8.75" fill="white" transform="translate(183.722 156.652) rotate(20.2117)"/>
</clipPath>
<clipPath id="clip34_458_17301">
<rect width="8.75" height="8.75" fill="white" transform="translate(191.934 159.675) rotate(20.2117)"/>
</clipPath>
<clipPath id="clip35_458_17301">
<rect width="8.75" height="8.75" fill="white" transform="translate(98.5874 134.633) rotate(20.2117)"/>
</clipPath>
<clipPath id="clip36_458_17301">
<rect width="8.75" height="8.75" fill="white" transform="translate(106.799 137.656) rotate(20.2117)"/>
</clipPath>
<clipPath id="clip37_458_17301">
<rect width="8.75" height="8.75" fill="white" transform="translate(115.01 140.679) rotate(20.2117)"/>
</clipPath>
<clipPath id="clip38_458_17301">
<rect width="8.75" height="8.75" fill="white" transform="translate(123.221 143.702) rotate(20.2117)"/>
</clipPath>
<clipPath id="clip39_458_17301">
<rect width="8.75" height="8.75" fill="white" transform="translate(131.432 146.725) rotate(20.2117)"/>
</clipPath>
<clipPath id="clip40_458_17301">
<rect width="8.75" height="8.75" fill="white" transform="translate(139.644 149.748) rotate(20.2117)"/>
</clipPath>
<clipPath id="clip41_458_17301">
<rect width="8.75" height="8.75" fill="white" transform="translate(147.855 152.771) rotate(20.2117)"/>
</clipPath>
<clipPath id="clip42_458_17301">
<rect width="8.75" height="8.75" fill="white" transform="translate(156.066 155.794) rotate(20.2117)"/>
</clipPath>
<clipPath id="clip43_458_17301">
<rect width="8.75" height="8.75" fill="white" transform="translate(164.277 158.817) rotate(20.2117)"/>
</clipPath>
<clipPath id="clip44_458_17301">
<rect width="8.75" height="8.75" fill="white" transform="translate(172.488 161.84) rotate(20.2117)"/>
</clipPath>
<clipPath id="clip45_458_17301">
<rect width="8.75" height="8.75" fill="white" transform="translate(180.699 164.863) rotate(20.2117)"/>
</clipPath>
<clipPath id="clip46_458_17301">
<rect width="8.75" height="8.75" fill="white" transform="translate(188.911 167.886) rotate(20.2117)"/>
</clipPath>
<clipPath id="clip47_458_17301">
<rect width="8.75" height="8.75" fill="white" transform="translate(95.5645 142.844) rotate(20.2117)"/>
</clipPath>
<clipPath id="clip48_458_17301">
<rect width="8.75" height="8.75" fill="white" transform="translate(103.776 145.867) rotate(20.2117)"/>
</clipPath>
<clipPath id="clip49_458_17301">
<rect width="8.75" height="8.75" fill="white" transform="translate(111.987 148.89) rotate(20.2117)"/>
</clipPath>
<clipPath id="clip50_458_17301">
<rect width="8.75" height="8.75" fill="white" transform="translate(120.198 151.914) rotate(20.2117)"/>
</clipPath>
<clipPath id="clip51_458_17301">
<rect width="8.75" height="8.75" fill="white" transform="translate(128.409 154.937) rotate(20.2117)"/>
</clipPath>
<clipPath id="clip52_458_17301">
<rect width="8.75" height="8.75" fill="white" transform="translate(136.62 157.959) rotate(20.2117)"/>
</clipPath>
<clipPath id="clip53_458_17301">
<rect width="8.75" height="8.75" fill="white" transform="translate(144.832 160.982) rotate(20.2117)"/>
</clipPath>
<clipPath id="clip54_458_17301">
<rect width="8.75" height="8.75" fill="white" transform="translate(153.043 164.005) rotate(20.2117)"/>
</clipPath>
<clipPath id="clip55_458_17301">
<rect width="8.75" height="8.75" fill="white" transform="translate(161.254 167.028) rotate(20.2117)"/>
</clipPath>
<clipPath id="clip56_458_17301">
<rect width="8.75" height="8.75" fill="white" transform="translate(169.465 170.051) rotate(20.2117)"/>
</clipPath>
<clipPath id="clip57_458_17301">
<rect width="8.75" height="8.75" fill="white" transform="translate(177.676 173.075) rotate(20.2117)"/>
</clipPath>
<clipPath id="clip58_458_17301">
<rect width="8.75" height="8.75" fill="white" transform="translate(185.887 176.098) rotate(20.2117)"/>
</clipPath>
<clipPath id="clip59_458_17301">
<rect width="8.75" height="8.75" fill="white" transform="translate(194.099 179.121) rotate(20.2117)"/>
</clipPath>
<clipPath id="clip60_458_17301">
<rect width="8.75" height="8.75" fill="white" transform="translate(92.5415 151.056) rotate(20.2117)"/>
</clipPath>
<clipPath id="clip61_458_17301">
<rect width="8.75" height="8.75" fill="white" transform="translate(100.753 154.079) rotate(20.2117)"/>
</clipPath>
<clipPath id="clip62_458_17301">
<rect width="8.75" height="8.75" fill="white" transform="translate(108.964 157.102) rotate(20.2117)"/>
</clipPath>
<clipPath id="clip63_458_17301">
<rect width="8.75" height="8.75" fill="white" transform="translate(117.175 160.125) rotate(20.2117)"/>
</clipPath>
<clipPath id="clip64_458_17301">
<rect width="8.75" height="8.75" fill="white" transform="translate(125.386 163.147) rotate(20.2117)"/>
</clipPath>
<clipPath id="clip65_458_17301">
<rect width="8.75" height="8.75" fill="white" transform="translate(133.597 166.17) rotate(20.2117)"/>
</clipPath>
<clipPath id="clip66_458_17301">
<rect width="8.75" height="8.75" fill="white" transform="translate(141.809 169.193) rotate(20.2117)"/>
</clipPath>
<clipPath id="clip67_458_17301">
<rect width="8.75" height="8.75" fill="white" transform="translate(150.02 172.217) rotate(20.2117)"/>
</clipPath>
<clipPath id="clip68_458_17301">
<rect width="8.75" height="8.75" fill="white" transform="translate(158.231 175.24) rotate(20.2117)"/>
</clipPath>
<clipPath id="clip69_458_17301">
<rect width="8.75" height="8.75" fill="white" transform="translate(166.442 178.263) rotate(20.2117)"/>
</clipPath>
<clipPath id="clip70_458_17301">
<rect width="8.75" height="8.75" fill="white" transform="translate(174.653 181.286) rotate(20.2117)"/>
</clipPath>
<clipPath id="clip71_458_17301">
<rect width="8.75" height="8.75" fill="white" transform="translate(182.865 184.309) rotate(20.2117)"/>
</clipPath>
<clipPath id="clip72_458_17301">
<rect width="8.75" height="8.75" fill="white" transform="translate(191.076 187.332) rotate(20.2117)"/>
</clipPath>
<clipPath id="clip73_458_17301">
<rect width="8.75" height="8.75" fill="white" transform="translate(89.5183 159.267) rotate(20.2117)"/>
</clipPath>
<clipPath id="clip74_458_17301">
<rect width="8.75" height="8.75" fill="white" transform="translate(97.7295 162.29) rotate(20.2117)"/>
</clipPath>
<clipPath id="clip75_458_17301">
<rect width="8.75" height="8.75" fill="white" transform="translate(105.941 165.312) rotate(20.2117)"/>
</clipPath>
<clipPath id="clip76_458_17301">
<rect width="8.75" height="8.75" fill="white" transform="translate(114.152 168.336) rotate(20.2117)"/>
</clipPath>
<clipPath id="clip77_458_17301">
<rect width="8.75" height="8.75" fill="white" transform="translate(122.363 171.359) rotate(20.2117)"/>
</clipPath>
<clipPath id="clip78_458_17301">
<rect width="8.75" height="8.75" fill="white" transform="translate(130.574 174.382) rotate(20.2117)"/>
</clipPath>
<clipPath id="clip79_458_17301">
<rect width="8.75" height="8.75" fill="white" transform="translate(138.786 177.405) rotate(20.2117)"/>
</clipPath>
<clipPath id="clip80_458_17301">
<rect width="8.75" height="8.75" fill="white" transform="translate(146.997 180.428) rotate(20.2117)"/>
</clipPath>
<clipPath id="clip81_458_17301">
<rect width="8.75" height="8.75" fill="white" transform="translate(155.208 183.451) rotate(20.2117)"/>
</clipPath>
<clipPath id="clip82_458_17301">
<rect width="8.75" height="8.75" fill="white" transform="translate(163.419 186.474) rotate(20.2117)"/>
</clipPath>
<clipPath id="clip83_458_17301">
<rect width="8.75" height="8.75" fill="white" transform="translate(171.63 189.497) rotate(20.2117)"/>
</clipPath>
<clipPath id="clip84_458_17301">
<rect width="8.75" height="8.75" fill="white" transform="translate(86.4954 167.478) rotate(20.2117)"/>
</clipPath>
<clipPath id="clip85_458_17301">
<rect width="8.75" height="8.75" fill="white" transform="translate(94.7065 170.501) rotate(20.2117)"/>
</clipPath>
<clipPath id="clip86_458_17301">
<rect width="8.75" height="8.75" fill="white" transform="translate(102.918 173.524) rotate(20.2117)"/>
</clipPath>
<clipPath id="clip87_458_17301">
<rect width="8.75" height="8.75" fill="white" transform="translate(111.129 176.547) rotate(20.2117)"/>
</clipPath>
<clipPath id="clip88_458_17301">
<rect width="8.75" height="8.75" fill="white" transform="translate(119.34 179.57) rotate(20.2117)"/>
</clipPath>
<clipPath id="clip89_458_17301">
<rect width="8.75" height="8.75" fill="white" transform="translate(127.551 182.593) rotate(20.2117)"/>
</clipPath>
<clipPath id="clip90_458_17301">
<rect width="8.75" height="8.75" fill="white" transform="translate(135.762 185.616) rotate(20.2117)"/>
</clipPath>
<clipPath id="clip91_458_17301">
<rect width="8.75" height="8.75" fill="white" transform="translate(143.974 188.639) rotate(20.2117)"/>
</clipPath>
<clipPath id="clip92_458_17301">
<rect width="8.75" height="8.75" fill="white" transform="translate(152.185 191.662) rotate(20.2117)"/>
</clipPath>
<clipPath id="clip93_458_17301">
<rect width="8.75" height="8.75" fill="white" transform="translate(91.6836 178.712) rotate(20.2117)"/>
</clipPath>
<clipPath id="clip94_458_17301">
<rect width="8.75" height="8.75" fill="white" transform="translate(99.8945 181.735) rotate(20.2117)"/>
</clipPath>
<clipPath id="clip95_458_17301">
<rect width="8.75" height="8.75" fill="white" transform="translate(108.106 184.758) rotate(20.2117)"/>
</clipPath>
<clipPath id="clip96_458_17301">
<rect width="8.75" height="8.75" fill="white" transform="translate(116.317 187.781) rotate(20.2117)"/>
</clipPath>
<clipPath id="clip97_458_17301">
<rect width="8.75" height="8.75" fill="white" transform="translate(124.528 190.804) rotate(20.2117)"/>
</clipPath>
<clipPath id="clip98_458_17301">
<rect width="8.75" height="8.75" fill="white" transform="translate(88.6604 186.923) rotate(20.2117)"/>
</clipPath>
<clipPath id="clip99_458_17301">
<rect width="8.75" height="8.75" fill="white" transform="translate(96.8716 189.946) rotate(20.2117)"/>
</clipPath>
</defs>
</svg>
