<svg width="1440" height="60" viewBox="0 0 1440 60" fill="none" xmlns="http://www.w3.org/2000/svg">
<g clip-path="url(#clip0_150_104)">
<path d="M0 60.0001H1440V2.1577e-05C1414.49 1.05501e-10 1408.99 24 1380 24C1351 24 1347.49 2.68818e-05 1320 2.1577e-05C1292.5 1.62722e-05 1289.99 24 1260 24C1230 24 1222.99 5.80252e-05 1200 1.05216e-10C1177 -5.8025e-05 1161.99 23.9999 1140 24C1118 24.0001 1103.49 1.05501e-10 1080 2.1577e-05C1056.5 4.31539e-05 1041.49 24 1020 24C998.501 24 983.495 2.68818e-05 959.998 1.05216e-10C936.501 -2.68816e-05 924.995 23.9996 899.998 24C875.001 24.0004 862.495 2.1577e-05 839.998 2.68818e-05C817.501 3.21866e-05 802.995 24 779.998 24C757.002 24 745.995 1.05501e-10 719.998 2.1577e-05C694.002 4.31539e-05 688.995 24 659.999 24C631.002 24 628.495 1.05216e-10 599.999 1.05216e-10C571.502 1.05216e-10 571.495 23.9996 539.999 24C508.503 24.0004 506.995 1.05501e-10 479.999 2.1577e-05C453.003 4.31539e-05 447.495 24 419.999 23.9996C392.503 23.9992 383.995 1.05216e-10 359.999 1.05216e-10C336.004 1.05216e-10 327.495 24 299.999 24C272.504 24 264.004 9.4235e-05 239.999 9.4235e-05C215.995 9.4235e-05 205.495 24 180 24C154.504 24 146.505 2.1577e-05 120 2.1577e-05C93.4949 2.1577e-05 85.5049 24 59.9999 24C34.4949 24 28.4949 2.1577e-05 0 2.1577e-05C0 2.1577e-05 0 18.6193 0 60.0001Z" fill="#E90303"/>
</g>
<defs>
<clipPath id="clip0_150_104">
<rect width="1440" height="60.0001" fill="white"/>
</clipPath>
</defs>
</svg>
