<svg width="2880" height="60" viewBox="0 0 2880 60" fill="none" xmlns="http://www.w3.org/2000/svg">
<g clip-path="url(#clip0_404_286)">
<rect width="2880" height="60.0001" fill="#F5EDD8"/>
<path d="M0 60.0001H1440V2.1577e-05C1414.49 1.05501e-10 1408.99 24 1380 24C1351 24 1347.49 2.68818e-05 1320 2.1577e-05C1292.5 1.62722e-05 1289.99 24 1260 24C1230 24 1222.99 5.80252e-05 1200 1.05216e-10C1177 -5.8025e-05 1161.99 23.9999 1140 24C1118 24.0001 1103.49 1.05501e-10 1080 2.1577e-05C1056.5 4.31539e-05 1041.49 24 1020 24C998.501 24 983.495 2.68818e-05 959.998 1.05216e-10C936.501 -2.68816e-05 924.995 23.9996 899.998 24C875.001 24.0004 862.495 2.1577e-05 839.998 2.68818e-05C817.501 3.21866e-05 802.995 24 779.998 24C757.002 24 745.995 1.05501e-10 719.998 2.1577e-05C694.002 4.31539e-05 688.995 24 659.999 24C631.002 24 628.495 1.05216e-10 599.999 1.05216e-10C571.502 1.05216e-10 571.495 23.9996 539.999 24C508.503 24.0004 506.995 1.05501e-10 479.999 2.1577e-05C453.003 4.31539e-05 447.495 24 419.999 23.9996C392.503 23.9992 383.995 1.05216e-10 359.999 1.05216e-10C336.004 1.05216e-10 327.495 24 299.999 24C272.504 24 264.004 9.4235e-05 239.999 9.4235e-05C215.995 9.4235e-05 205.495 24 180 24C154.504 24 146.505 2.1577e-05 120 2.1577e-05C93.4949 2.1577e-05 85.5049 24 59.9999 24C34.4949 24 28.4949 2.1577e-05 0 2.1577e-05C0 2.1577e-05 0 18.6193 0 60.0001Z" fill="#E90303"/>
<path d="M1440 60.0001H2880V2.1577e-05C2854.49 1.05501e-10 2848.99 24 2820 24C2791 24 2787.49 2.68818e-05 2760 2.1577e-05C2732.5 1.62722e-05 2729.99 24 2700 24C2670 24 2662.99 5.80252e-05 2640 1.05216e-10C2617 -5.8025e-05 2601.99 23.9999 2580 24C2558 24.0001 2543.49 1.05501e-10 2520 2.1577e-05C2496.5 4.31539e-05 2481.49 24 2460 24C2438.5 24 2423.49 2.68818e-05 2400 1.05216e-10C2376.5 -2.68816e-05 2364.99 23.9996 2340 24C2315 24.0004 2302.49 2.1577e-05 2280 2.68818e-05C2257.5 3.21866e-05 2242.99 24 2220 24C2197 24 2185.99 1.05501e-10 2160 2.1577e-05C2134 4.31539e-05 2128.99 24 2100 24C2071 24 2068.49 1.05216e-10 2040 1.05216e-10C2011.5 1.05216e-10 2011.49 23.9996 1980 24C1948.5 24.0004 1946.99 1.05501e-10 1920 2.1577e-05C1893 4.31539e-05 1887.49 24 1860 23.9996C1832.5 23.9992 1823.99 1.05216e-10 1800 1.05216e-10C1776 1.05216e-10 1767.49 24 1740 24C1712.5 24 1704 9.4235e-05 1680 9.4235e-05C1655.99 9.4235e-05 1645.49 24 1620 24C1594.5 24 1586.5 2.1577e-05 1560 2.1577e-05C1533.49 2.1577e-05 1525.5 24 1500 24C1474.49 24 1468.49 2.1577e-05 1440 2.1577e-05C1440 2.1577e-05 1440 18.6193 1440 60.0001Z" fill="#E90303"/>
</g>
<defs>
<clipPath id="clip0_404_286">
<rect width="2880" height="60.0001" fill="white"/>
</clipPath>
</defs>
</svg>
