<svg width="1440" height="60" viewBox="0 0 1440 60" fill="none" xmlns="http://www.w3.org/2000/svg">
<g clip-path="url(#clip0_150_104)">
<path d="M0 60H1440V2.1577e-05C1414.5 1.05501e-10 1409 24 1380 24C1351 24 1347.5 2.68818e-05 1320 2.1577e-05C1292.5 1.62722e-05 1289.99 24 1260 24C1230 24 1222.99 5.80252e-05 1200 1.05216e-10C1177 -5.8025e-05 1161.99 24 1140 24C1118 24 1103.5 1.05501e-10 1080 2.1577e-05C1056.5 4.31539e-05 1041.5 24 1020 24C998.501 24 983.5 2.68818e-05 959 1.05216e-10C936.501 -2.68816e-05 924.995 23.9996 899 24C875.001 24 862.5 2.1577e-05 839 2.68818e-05C817.501 3.21866e-05 803 24 779 24C757 24 745.995 1.05501e-10 719 2.1577e-05C694 4.31539e-05 688.995 24 659.999 24C631 24 628.5 1.05216e-10 600 1.05216e-10C571.502 1.05216e-10 571.5 24 540 24C508.5 24 506.995 1.05501e-10 480 2.1577e-05C453 4.31539e-05 447.5 24 420 23.9996C392.5 23.9992 383.995 1.05216e-10 360 1.05216e-10C336 1.05216e-10 327.5 24 299.999 24C272.5 24 264 9.4235e-05 240 9.4235e-05C215.995 9.4235e-05 205.5 24 180 24C154.504 24 146.5 2.1577e-05 120 2.1577e-05C93.5 2.1577e-05 85.5049 24 60 24C34.5 24 28.5 2.1577e-05 0 2.1577e-05C0 2.1577e-05 0 18.6193 0 60Z" fill="#E90303"/>
</g>
<defs>
<clipPath id="clip0_150_104">
<rect width="1440" height="60" fill="white"/>
</clipPath>
</defs>
</svg>
