<svg fill="none" height="20" viewBox="0 0 20 20" width="20" xmlns="http://www.w3.org/2000/svg"><g fill="#f5f4f0"><path d="m19.9992 5.23755h-.9562v4.76245h.9562z"/><path d="m19.0437 10h-.9499v1.9062h.9499z"/><path d="m19.0437 4.2876h-.9499v.95h.9499z"/><path d="m18.0945 11.9062h-.95v.9501h.95z"/><path d="m18.0945 6.1875h-.95v1.90625h.95z"/><path d="m18.0945 3.3313h-.95v.95625h.95z"/><path d="m17.1438 5.23755h-.9563v.95h.9563z"/><path d="m17.1445 12.8564h-1.9062v.95h1.9062z"/><path d="m16.1875 4.2876h-1.9063v.95h1.9063z"/><path d="m15.2383 13.8064h-1.9063v.9562h1.9063z"/><path d="m17.1434 2.38135h-4.7625v.95h4.7625z"/><path d="m13.332 14.7627h-1.9062v.95h1.9062z"/><path d="m12.382 3.3313h-.9562v.95625h.9562z"/><path d="m11.4246 15.7126h-.95v.95h.95z"/><path d="m11.4246 4.2876h-.95v.95h.95z"/><path d="m10.4754 16.6626h-.95001v.9562h.95001z"/><path d="m10.4754 5.23755h-.95001v.95h.95001z"/><path d="m9.52461 15.7126h-.95625v.95h.95625z"/><path d="m9.52461 4.2876h-.95625v.95h.95625z"/><path d="m8.56836 14.7627h-1.90625v.95h1.90625z"/><path d="m8.56914 3.3313h-.95v.95625h.95z"/><path d="m6.66172 13.8064h-1.9v.9562h1.9z"/><path d="m4.76172 12.8564h-1.90625v.95h1.90625z"/><path d="m7.61797 2.38135h-4.7625v.95h4.7625z"/><path d="m2.85625 11.9062h-.95v.9501h.95z"/><path d="m2.85625 3.3313h-.95v.95625h.95z"/><path d="m1.90547 10h-.956251v1.9062h.956251z"/><path d="m1.90547 4.2876h-.956251v.95h.956251z"/><path d="m.95 5.23755h-.95v4.76245h.95z"/></g></svg>