<svg width="595" height="690" viewBox="0 0 595 690" fill="none" xmlns="http://www.w3.org/2000/svg">
<path d="M33.4262 455.617L203.275 646.111C203.379 646.227 203.532 646.289 203.688 646.276L429.337 628.414C429.466 628.404 429.586 628.344 429.671 628.248L568.029 472.582C568.354 472.217 568.016 471.65 567.54 471.764L494.483 489.147C494.044 489.251 493.703 488.767 493.947 488.389L571.182 368.993C571.434 368.602 571.063 368.108 570.618 368.242L520.99 383.196C520.589 383.317 520.226 382.919 520.382 382.53L558.714 287.262C558.903 286.791 558.352 286.37 557.948 286.677L472.138 351.846C471.752 352.138 471.217 351.768 471.356 351.304L493.151 278.511C493.283 278.071 492.801 277.701 492.41 277.942L434.153 313.824C433.735 314.081 433.236 313.646 433.432 313.197L482.211 201.906C482.414 201.444 481.883 201.007 481.469 201.294L407.622 252.479C407.292 252.708 406.84 252.474 406.837 252.072L406.114 156.134C406.111 155.696 405.587 155.474 405.27 155.775L326.985 230.289C326.636 230.622 326.064 230.314 326.149 229.839L346.494 115.561C346.573 115.117 346.069 114.803 345.706 115.07L297.551 150.425C297.262 150.637 296.85 150.485 296.768 150.136L285.926 104.013C285.818 103.552 285.189 103.486 284.987 103.914L261.866 153.006C261.716 153.326 261.29 153.393 261.048 153.134L228.304 118.028C228.014 117.717 227.493 117.887 227.442 118.309L213.784 231.495C213.731 231.938 213.167 232.095 212.893 231.742L152.388 153.891C152.105 153.527 151.524 153.706 151.494 154.165L148.065 207.426C148.04 207.813 147.603 208.026 147.283 207.806L105.994 179.461C105.634 179.214 105.152 179.515 105.217 179.947L122.845 298.3C122.902 298.686 122.515 298.986 122.155 298.834L48.9744 267.864C48.5637 267.69 48.1482 268.1 48.3166 268.513L83.0109 353.574C83.1552 353.927 82.8656 354.306 82.4865 354.259L25.2587 347.165C24.8177 347.11 24.5299 347.615 24.8014 347.967L111.677 460.507C111.942 460.851 111.672 461.347 111.239 461.311L33.8414 454.786C33.391 454.748 33.1254 455.28 33.4262 455.617Z" fill="#F5ECD4" stroke="#F5ECD4" stroke-width="20"/>
<path d="M33.4262 455.617L203.275 646.111C203.379 646.227 203.532 646.289 203.688 646.276L429.337 628.414C429.466 628.404 429.586 628.344 429.671 628.248L568.029 472.582C568.354 472.217 568.016 471.65 567.54 471.764L494.483 489.147C494.044 489.251 493.703 488.767 493.947 488.389L571.182 368.993C571.434 368.602 571.063 368.108 570.618 368.242L520.99 383.196C520.589 383.317 520.226 382.919 520.382 382.53L558.714 287.262C558.903 286.791 558.352 286.37 557.948 286.677L472.138 351.846C471.752 352.138 471.217 351.768 471.356 351.304L493.151 278.511C493.283 278.071 492.801 277.701 492.41 277.942L434.153 313.824C433.735 314.081 433.236 313.646 433.432 313.197L482.211 201.906C482.414 201.444 481.883 201.007 481.469 201.294L407.622 252.479C407.292 252.708 406.84 252.474 406.837 252.072L406.114 156.134C406.111 155.696 405.587 155.474 405.27 155.775L326.985 230.289C326.636 230.622 326.064 230.314 326.149 229.839L346.494 115.561C346.573 115.117 346.069 114.803 345.706 115.07L297.551 150.425C297.262 150.637 296.85 150.485 296.768 150.136L285.926 104.013C285.818 103.552 285.189 103.486 284.987 103.914L261.866 153.006C261.716 153.326 261.29 153.393 261.048 153.134L228.304 118.028C228.014 117.717 227.493 117.887 227.442 118.309L213.784 231.495C213.731 231.938 213.167 232.095 212.893 231.742L152.388 153.891C152.105 153.527 151.524 153.706 151.494 154.165L148.065 207.426C148.04 207.813 147.603 208.026 147.283 207.806L105.994 179.461C105.634 179.214 105.152 179.515 105.217 179.947L122.845 298.3C122.902 298.686 122.515 298.986 122.155 298.834L48.9744 267.864C48.5637 267.69 48.1482 268.1 48.3166 268.513L83.0109 353.574C83.1552 353.927 82.8656 354.306 82.4865 354.259L25.2587 347.165C24.8177 347.11 24.5299 347.615 24.8014 347.967L111.677 460.507C111.942 460.851 111.672 461.347 111.239 461.311L33.8414 454.786C33.391 454.748 33.1254 455.28 33.4262 455.617Z" fill="#F5ECD4" stroke="#292F64" stroke-width="8"/>
<path d="M335.563 670.446C399.524 665.383 457.198 657.107 498.756 647.802C519.513 643.154 536.374 638.222 548.015 633.253C553.816 630.777 558.495 628.22 561.726 625.572C564.852 623.011 567.289 619.802 566.989 616.013C566.689 612.225 563.777 609.439 560.287 607.401C556.68 605.295 551.657 603.506 545.539 601.974C533.261 598.898 515.834 596.681 494.604 595.356C452.1 592.705 393.842 593.607 329.881 598.67C265.92 603.733 208.245 612.009 166.688 621.314C145.931 625.962 129.07 630.894 117.429 635.863C111.628 638.339 106.949 640.896 103.718 643.543C100.592 646.105 98.1548 649.314 98.4547 653.103C98.7546 656.891 101.666 659.677 105.156 661.715C108.764 663.821 113.786 665.61 119.905 667.142C132.183 670.217 149.61 672.435 170.839 673.76C213.344 676.411 271.602 675.509 335.563 670.446Z" fill="#292F64" stroke="#F5ECD4" stroke-width="6"/>
<line x1="406.897" y1="577.076" x2="430.094" y2="527.059" stroke="#292F64" stroke-width="8" stroke-linecap="round"/>
<line x1="391.819" y1="575.604" x2="402.911" y2="534.141" stroke="#292F64" stroke-width="8" stroke-linecap="round"/>
<line x1="249.195" y1="599.828" x2="236.103" y2="582.545" stroke="#292F64" stroke-width="8" stroke-linecap="round"/>
<line x1="266.791" y1="596.53" x2="259.356" y2="570.872" stroke="#292F64" stroke-width="8" stroke-linecap="round"/>
</svg>
